TAS Beginner-Extra Bold.ufo
<glyph name="exclam" format="2">
	<advance width="162"/>
	<unicode hex="0021"/>
	<outline>
		<contour>
			<point x="241" y="602" type="line" smooth="yes"/>
			<point x="248" y="628"/>
			<point x="222" y="648"/>
			<point x="198" y="650" type="curve" smooth="yes"/>
			<point x="176" y="651"/>
			<point x="146" y="638"/>
			<point x="140" y="615" type="curve" smooth="yes"/>
			<point x="43" y="229" type="line" smooth="yes"/>
			<point x="36" y="200"/>
			<point x="58" y="178"/>
			<point x="83" y="175" type="curve" smooth="yes"/>
			<point x="106" y="171"/>
			<point x="136" y="187"/>
			<point x="143" y="216" type="curve" smooth="yes"/>
		</contour>
		<contour>
			<point x="43" y="-24" type="curve" smooth="yes"/>
			<point x="73" y="-24"/>
			<point x="101" y="2"/>
			<point x="101" y="31" type="curve" smooth="yes"/>
			<point x="101" y="60"/>
			<point x="73" y="86"/>
			<point x="43" y="86" type="curve" smooth="yes"/>
			<point x="12" y="86"/>
			<point x="-9" y="58"/>
			<point x="-9" y="31" type="curve" smooth="yes"/>
			<point x="-9" y="4"/>
			<point x="12" y="-24"/>
		</contour>
	</outline>
</glyph>
<glyph name="quotedbl" format="2">
  <advance width="417"/>
  <unicode hex="0022"/>
  <outline>
    <contour>
      <point x="193" y="405" type="curve" smooth="yes"/>
      <point x="212" y="405"/>
      <point x="232" y="415"/>
      <point x="238" y="439" type="curve" smooth="yes"/>
      <point x="278" y="597" type="line" smooth="yes"/>
      <point x="287" y="631"/>
      <point x="261" y="650"/>
      <point x="239" y="650" type="curve" smooth="yes"/>
      <point x="221" y="650"/>
      <point x="201" y="640"/>
      <point x="194" y="614" type="curve" smooth="yes"/>
      <point x="154" y="457" type="line" smooth="yes"/>
      <point x="146" y="425"/>
      <point x="171" y="405"/>
    </contour>
    <contour>
      <point x="346" y="405" type="curve" smooth="yes"/>
      <point x="364" y="405"/>
      <point x="384" y="415"/>
      <point x="390" y="439" type="curve" smooth="yes"/>
      <point x="431" y="597" type="line" smooth="yes"/>
      <point x="440" y="631"/>
      <point x="413" y="650"/>
      <point x="392" y="650" type="curve" smooth="yes"/>
      <point x="373" y="650"/>
      <point x="354" y="640"/>
      <point x="347" y="614" type="curve" smooth="yes"/>
      <point x="307" y="457" type="line" smooth="yes"/>
      <point x="299" y="425"/>
      <point x="323" y="405"/>
    </contour>
  </outline>
</glyph>
<glyph name="numbersign" format="2">
  <advance width="739"/>
  <unicode hex="0023"/>
  <outline>
    <contour>
      <point x="142" y="196" type="curve" smooth="yes"/>
      <point x="623" y="196" type="line" smooth="yes"/>
      <point x="659" y="196"/>
      <point x="674" y="223"/>
      <point x="674" y="244" type="curve" smooth="yes"/>
      <point x="674" y="266"/>
      <point x="662" y="292"/>
      <point x="623" y="292" type="curve" smooth="yes"/>
      <point x="142" y="292" type="line" smooth="yes"/>
      <point x="103" y="292"/>
      <point x="91" y="266"/>
      <point x="91" y="244" type="curve"/>
      <point x="91" y="223"/>
      <point x="106" y="196"/>
    </contour>
    <contour>
      <point x="183" y="358" type="curve" smooth="yes"/>
      <point x="662" y="358" type="line" smooth="yes"/>
      <point x="701" y="358"/>
      <point x="714" y="384"/>
      <point x="714" y="406" type="curve" smooth="yes"/>
      <point x="714" y="427"/>
      <point x="700" y="454"/>
      <point x="662" y="454" type="curve" smooth="yes"/>
      <point x="183" y="454" type="line" smooth="yes"/>
      <point x="145" y="454"/>
      <point x="131" y="427"/>
      <point x="131" y="406" type="curve" smooth="yes"/>
      <point x="131" y="384"/>
      <point x="144" y="358"/>
    </contour>
    <contour>
      <point x="240" y="0" type="curve" smooth="yes"/>
      <point x="281" y="0"/>
      <point x="290" y="25"/>
      <point x="294" y="43" type="curve" smooth="yes"/>
      <point x="427" y="586" type="line" smooth="yes"/>
      <point x="437" y="630"/>
      <point x="416" y="650"/>
      <point x="384" y="650" type="curve" smooth="yes"/>
      <point x="351" y="650"/>
      <point x="336" y="635"/>
      <point x="329" y="606" type="curve" smooth="yes"/>
      <point x="194" y="61" type="line" smooth="yes"/>
      <point x="185" y="28"/>
      <point x="202" y="0"/>
    </contour>
    <contour>
      <point x="422" y="0" type="curve" smooth="yes"/>
      <point x="463" y="0"/>
      <point x="472" y="25"/>
      <point x="476" y="43" type="curve" smooth="yes"/>
      <point x="609" y="586" type="line" smooth="yes"/>
      <point x="619" y="630"/>
      <point x="598" y="650"/>
      <point x="566" y="650" type="curve" smooth="yes"/>
      <point x="533" y="650"/>
      <point x="518" y="635"/>
      <point x="511" y="606" type="curve" smooth="yes"/>
      <point x="376" y="61" type="line" smooth="yes"/>
      <point x="367" y="28"/>
      <point x="384" y="0"/>
    </contour>
  </outline>
</glyph>
<glyph name="dollar" format="2">
  <advance width="440"/>
  <unicode hex="0024"/>
  <outline>
    <contour>
      <point x="206" y="-7" type="curve" smooth="yes"/>
      <point x="304" y="-7"/>
      <point x="394" y="58"/>
      <point x="422" y="167" type="curve" smooth="yes"/>
      <point x="451" y="291"/>
      <point x="391" y="357"/>
      <point x="257" y="392" type="curve" smooth="yes"/>
      <point x="216" y="403"/>
      <point x="185" y="422"/>
      <point x="194" y="454" type="curve" smooth="yes"/>
      <point x="207" y="508"/>
      <point x="259" y="543"/>
      <point x="311" y="543" type="curve" smooth="yes"/>
      <point x="340" y="543"/>
      <point x="370" y="513"/>
      <point x="383" y="474" type="curve" smooth="yes"/>
      <point x="391" y="449"/>
      <point x="417" y="437"/>
      <point x="442" y="441" type="curve" smooth="yes"/>
      <point x="478" y="448"/>
      <point x="488" y="482"/>
      <point x="482" y="503" type="curve" smooth="yes"/>
      <point x="455" y="599"/>
      <point x="390" y="641"/>
      <point x="315" y="641" type="curve" smooth="yes"/>
      <point x="214" y="641"/>
      <point x="119" y="579"/>
      <point x="94" y="478" type="curve" smooth="yes"/>
      <point x="73" y="388"/>
      <point x="115" y="324"/>
      <point x="235" y="292" type="curve" smooth="yes"/>
      <point x="294" y="276"/>
      <point x="335" y="246"/>
      <point x="321" y="187" type="curve" smooth="yes"/>
      <point x="308" y="131"/>
      <point x="259" y="92"/>
      <point x="208" y="92" type="curve" smooth="yes"/>
      <point x="161" y="92"/>
      <point x="114" y="127"/>
      <point x="108" y="180" type="curve" smooth="yes"/>
      <point x="106" y="208"/>
      <point x="90" y="225"/>
      <point x="53" y="223" type="curve" smooth="yes"/>
      <point x="19" y="221"/>
      <point x="4" y="202"/>
      <point x="6" y="171" type="curve" smooth="yes"/>
      <point x="18" y="60"/>
      <point x="108" y="-7"/>
    </contour>
    <contour>
      <point x="155" y="-96" type="curve" smooth="yes"/>
      <point x="197" y="-96"/>
      <point x="206" y="-71"/>
      <point x="211" y="-52" type="curve" smooth="yes"/>
      <point x="380" y="635" type="line" smooth="yes"/>
      <point x="390" y="679"/>
      <point x="368" y="700"/>
      <point x="336" y="700" type="curve" smooth="yes"/>
      <point x="302" y="700"/>
      <point x="287" y="684"/>
      <point x="280" y="656" type="curve" smooth="yes"/>
      <point x="109" y="-34" type="line" smooth="yes"/>
      <point x="101" y="-67"/>
      <point x="117" y="-96"/>
    </contour>
  </outline>
</glyph>
<glyph name="percent" format="2">
	<advance width="748"/>
	<unicode hex="0025"/>
	<outline>
		<contour>
			<point x="580" y="588" type="line" smooth="yes"/>
			<point x="596" y="624"/>
			<point x="565" y="650"/>
			<point x="535" y="650" type="curve" smooth="yes"/>
			<point x="515" y="650"/>
			<point x="493" y="639"/>
			<point x="482" y="614" type="curve" smooth="yes"/>
			<point x="242" y="60" type="line" smooth="yes"/>
			<point x="227" y="25"/>
			<point x="256" y="0"/>
			<point x="288" y="0" type="curve" smooth="yes"/>
			<point x="307" y="0"/>
			<point x="329" y="10"/>
			<point x="339" y="32" type="curve" smooth="yes"/>
		</contour>
		<contour>
			<point x="275" y="649" type="curve" smooth="yes"/>
			<point x="175" y="649"/>
			<point x="126" y="578"/>
			<point x="104" y="492" type="curve" smooth="yes"/>
			<point x="85" y="417"/>
			<point x="104" y="312"/>
			<point x="187" y="312" type="curve" smooth="yes"/>
			<point x="283" y="312"/>
			<point x="349" y="426"/>
			<point x="368" y="502" type="curve" smooth="yes"/>
			<point x="380" y="551"/>
			<point x="368" y="649"/>
		</contour>
		<contour>
			<point x="264" y="573" type="curve" smooth="yes"/>
			<point x="303" y="573"/>
			<point x="291" y="524"/>
			<point x="289" y="514" type="curve" smooth="yes"/>
			<point x="276" y="462"/>
			<point x="233" y="388"/>
			<point x="199" y="388" type="curve" smooth="yes"/>
			<point x="163" y="388"/>
			<point x="176" y="446"/>
			<point x="191" y="505" type="curve" smooth="yes"/>
			<point x="198" y="533"/>
			<point x="222" y="573"/>
		</contour>
		<contour>
			<point x="635" y="337" type="curve" smooth="yes"/>
			<point x="535" y="337"/>
			<point x="486" y="266"/>
			<point x="464" y="180" type="curve" smooth="yes"/>
			<point x="445" y="105"/>
			<point x="464" y="0"/>
			<point x="547" y="0" type="curve" smooth="yes"/>
			<point x="643" y="0"/>
			<point x="709" y="114"/>
			<point x="728" y="190" type="curve" smooth="yes"/>
			<point x="740" y="239"/>
			<point x="728" y="337"/>
		</contour>
		<contour>
			<point x="624" y="261" type="curve" smooth="yes"/>
			<point x="663" y="261"/>
			<point x="651" y="212"/>
			<point x="649" y="202" type="curve" smooth="yes"/>
			<point x="636" y="150"/>
			<point x="593" y="76"/>
			<point x="559" y="76" type="curve" smooth="yes"/>
			<point x="523" y="76"/>
			<point x="536" y="134"/>
			<point x="551" y="193" type="curve" smooth="yes"/>
			<point x="558" y="221"/>
			<point x="582" y="261"/>
		</contour>
	</outline>
</glyph>
<glyph name="ampersand" format="2">
  <advance width="551"/>
  <unicode hex="0026"/>
  <guideline x="284" y="422" angle="76.0" identifier="5Q9LBHOic4"/>
  <outline>
    <contour>
      <point x="189" y="0" type="curve" smooth="yes"/>
      <point x="298" y="0"/>
      <point x="422" y="102"/>
      <point x="529" y="279" type="curve" smooth="yes"/>
      <point x="545" y="303"/>
      <point x="535" y="334"/>
      <point x="509" y="347" type="curve" smooth="yes"/>
      <point x="487" y="358"/>
      <point x="458" y="354"/>
      <point x="442" y="328" type="curve" smooth="yes"/>
      <point x="357" y="190"/>
      <point x="267" y="96"/>
      <point x="199" y="96" type="curve" smooth="yes"/>
      <point x="171" y="96"/>
      <point x="158" y="120"/>
      <point x="158" y="151" type="curve" smooth="yes"/>
      <point x="158" y="207"/>
      <point x="207" y="264"/>
      <point x="293" y="322" type="curve" smooth="yes"/>
      <point x="415" y="403"/>
      <point x="469" y="476"/>
      <point x="469" y="537" type="curve" smooth="yes"/>
      <point x="469" y="604"/>
      <point x="422" y="650"/>
      <point x="337" y="650" type="curve" smooth="yes"/>
      <point x="242" y="650"/>
      <point x="171" y="581"/>
      <point x="171" y="490" type="curve" smooth="yes"/>
      <point x="171" y="448"/>
      <point x="196" y="397"/>
      <point x="228" y="339" type="curve" smooth="yes"/>
      <point x="399" y="27" type="line" smooth="yes"/>
      <point x="409" y="8"/>
      <point x="447" y="-12"/>
      <point x="476" y="9" type="curve" smooth="yes"/>
      <point x="500" y="27"/>
      <point x="500" y="54"/>
      <point x="486" y="79" type="curve" smooth="yes"/>
      <point x="314" y="391" type="line" smooth="yes"/>
      <point x="292" y="431"/>
      <point x="272" y="462"/>
      <point x="272" y="498" type="curve" smooth="yes"/>
      <point x="272" y="530"/>
      <point x="295" y="554"/>
      <point x="327" y="554" type="curve" smooth="yes"/>
      <point x="348" y="554"/>
      <point x="368" y="549"/>
      <point x="368" y="530" type="curve" smooth="yes"/>
      <point x="368" y="498"/>
      <point x="321" y="456"/>
      <point x="240" y="402" type="curve" smooth="yes"/>
      <point x="117" y="322"/>
      <point x="57" y="233.0"/>
      <point x="57" y="144" type="curve" smooth="yes"/>
      <point x="57" y="52"/>
      <point x="111" y="0"/>
    </contour>
  </outline>
</glyph>
<glyph name="quotesingle" format="2">
  <advance width="264"/>
  <unicode hex="0027"/>
  <outline>
    <contour>
      <point x="193" y="405" type="curve" smooth="yes"/>
      <point x="212" y="405"/>
      <point x="232" y="415"/>
      <point x="238" y="439" type="curve" smooth="yes"/>
      <point x="278" y="597" type="line" smooth="yes"/>
      <point x="287" y="631"/>
      <point x="261" y="650"/>
      <point x="239" y="650" type="curve" smooth="yes"/>
      <point x="221" y="650"/>
      <point x="201" y="640"/>
      <point x="194" y="614" type="curve" smooth="yes"/>
      <point x="154" y="457" type="line" smooth="yes"/>
      <point x="146" y="425"/>
      <point x="171" y="405"/>
    </contour>
  </outline>
</glyph>
<glyph name="parenleft" format="2">
	<advance width="325"/>
	<unicode hex="0028"/>
	<outline>
		<contour>
			<point x="172" y="-294" type="curve" smooth="yes"/>
			<point x="188" y="-283"/>
			<point x="196" y="-264"/>
			<point x="184" y="-235" type="curve" smooth="yes"/>
			<point x="115" y="-61"/>
			<point x="109" y="86"/>
			<point x="143" y="217" type="curve" smooth="yes"/>
			<point x="172" y="335"/>
			<point x="257" y="460"/>
			<point x="383" y="569" type="curve" smooth="yes"/>
			<point x="416" y="598"/>
			<point x="413" y="621"/>
			<point x="400" y="637" type="curve" smooth="yes"/>
			<point x="386" y="653"/>
			<point x="353" y="657"/>
			<point x="320" y="631" type="curve" smooth="yes"/>
			<point x="180" y="514"/>
			<point x="66" y="339"/>
			<point x="39" y="232" type="curve" smooth="yes"/>
			<point x="10" y="109"/>
			<point x="25" y="-83"/>
			<point x="102" y="-269" type="curve" smooth="yes"/>
			<point x="115" y="-298"/>
			<point x="150" y="-308"/>
		</contour>
	</outline>
</glyph>
<glyph name="parenright" format="2">
  <advance width="341"/>
  <unicode hex="0029"/>
  <outline>
    <contour>
      <point x="54" y="-182" type="curve" smooth="yes"/>
      <point x="200" y="-56"/>
      <point x="312" y="153"/>
      <point x="312" y="360" type="curve" smooth="yes"/>
      <point x="312" y="447"/>
      <point x="293" y="533"/>
      <point x="248" y="614" type="curve" smooth="yes"/>
      <point x="229" y="651"/>
      <point x="205" y="653"/>
      <point x="183" y="644" type="curve" smooth="yes"/>
      <point x="160" y="634"/>
      <point x="139" y="609"/>
      <point x="161" y="570" type="curve" smooth="yes"/>
      <point x="194" y="508"/>
      <point x="210" y="437"/>
      <point x="210" y="360" type="curve" smooth="yes"/>
      <point x="210" y="188"/>
      <point x="114" y="1"/>
      <point x="-12" y="-111" type="curve" smooth="yes"/>
      <point x="-43" y="-138"/>
      <point x="-39" y="-165"/>
      <point x="-22" y="-184" type="curve" smooth="yes"/>
      <point x="-7" y="-200"/>
      <point x="21" y="-211"/>
    </contour>
  </outline>
</glyph>
<glyph name="asterisk" format="2">
	<advance width="267"/>
	<unicode hex="002A"/>
	<outline>
		<contour>
			<point x="312" y="541" type="line" smooth="yes"/>
			<point x="339" y="555"/>
			<point x="351" y="578"/>
			<point x="337" y="602" type="curve" smooth="yes"/>
			<point x="327" y="619"/>
			<point x="300" y="627"/>
			<point x="274" y="614" type="curve" smooth="yes"/>
			<point x="136" y="542" type="line"/>
			<point x="113" y="527"/>
			<point x="99" y="505"/>
			<point x="111" y="483" type="curve" smooth="yes"/>
			<point x="119" y="464"/>
			<point x="150" y="456"/>
			<point x="178" y="470" type="curve" smooth="yes"/>
		</contour>
		<contour>
			<point x="243" y="468" type="line"/>
			<point x="267" y="449"/>
			<point x="296" y="451"/>
			<point x="311" y="467" type="curve" smooth="yes"/>
			<point x="325" y="484"/>
			<point x="325" y="507"/>
			<point x="304" y="525" type="curve" smooth="yes"/>
			<point x="205" y="615" type="line" smooth="yes"/>
			<point x="184" y="634"/>
			<point x="155" y="632"/>
			<point x="141" y="616" type="curve" smooth="yes"/>
			<point x="125" y="599"/>
			<point x="125" y="576"/>
			<point x="148" y="556" type="curve" smooth="yes"/>
		</contour>
		<contour>
			<point x="285" y="605" type="line" smooth="yes"/>
			<point x="293" y="636"/>
			<point x="274" y="657"/>
			<point x="250" y="659" type="curve" smooth="yes"/>
			<point x="229" y="661"/>
			<point x="205" y="645"/>
			<point x="198" y="619" type="curve" smooth="yes"/>
			<point x="163" y="479" type="line" smooth="yes"/>
			<point x="156" y="450"/>
			<point x="171" y="432"/>
			<point x="192" y="426" type="curve" smooth="yes"/>
			<point x="213" y="419"/>
			<point x="242" y="434"/>
			<point x="251" y="465" type="curve" smooth="yes"/>
		</contour>
	</outline>
</glyph>
<glyph name="plus" format="2">
	<advance width="383"/>
	<unicode hex="002B"/>
	<outline>
		<contour>
			<point x="232" y="291" type="line" smooth="yes"/>
			<point x="240" y="323"/>
			<point x="218" y="346"/>
			<point x="191" y="348" type="curve" smooth="yes"/>
			<point x="171" y="349"/>
			<point x="148" y="338"/>
			<point x="141" y="311" type="curve" smooth="yes"/>
			<point x="90" y="99" type="line" smooth="yes"/>
			<point x="82" y="67"/>
			<point x="104" y="44"/>
			<point x="131" y="42" type="curve" smooth="yes"/>
			<point x="151" y="41"/>
			<point x="173" y="52"/>
			<point x="180" y="79" type="curve" smooth="yes"/>
		</contour>
		<contour>
			<point x="270" y="154" type="line" smooth="yes"/>
			<point x="301" y="154"/>
			<point x="321" y="174"/>
			<point x="321" y="198" type="curve" smooth="yes"/>
			<point x="321" y="221"/>
			<point x="301" y="241"/>
			<point x="270" y="241" type="curve" smooth="yes"/>
			<point x="53" y="241" type="line" smooth="yes"/>
			<point x="22" y="241"/>
			<point x="2" y="221"/>
			<point x="2" y="198" type="curve" smooth="yes"/>
			<point x="2" y="174"/>
			<point x="22" y="154"/>
			<point x="53" y="154" type="curve" smooth="yes"/>
		</contour>
	</outline>
</glyph>
<glyph name="comma" format="2">
  <advance width="185"/>
  <unicode hex="002C"/>
  <outline>
    <contour>
      <point x="43" y="-79" type="curve" smooth="yes"/>
      <point x="69" y="-79"/>
      <point x="90" y="-68"/>
      <point x="98" y="-37" type="curve" smooth="yes"/>
      <point x="124" y="67" type="line" smooth="yes"/>
      <point x="136" y="113"/>
      <point x="103" y="129"/>
      <point x="76" y="129" type="curve" smooth="yes"/>
      <point x="50" y="129"/>
      <point x="30" y="119.0"/>
      <point x="22" y="87" type="curve" smooth="yes"/>
      <point x="-4" y="-17" type="line" smooth="yes"/>
      <point x="-15" y="-62"/>
      <point x="17" y="-79"/>
    </contour>
  </outline>
</glyph>
<glyph name="hyphen" format="2">
  <advance width="330"/>
  <unicode hex="002D"/>
  <outline>
    <contour>
      <point x="125" y="240" type="curve" smooth="yes"/>
      <point x="267" y="240" type="line" smooth="yes"/>
      <point x="309" y="240"/>
      <point x="318" y="265"/>
      <point x="318" y="289" type="curve" smooth="yes"/>
      <point x="318" y="312"/>
      <point x="310" y="336"/>
      <point x="267" y="336" type="curve" smooth="yes"/>
      <point x="125" y="336" type="line" smooth="yes"/>
      <point x="82" y="336"/>
      <point x="74" y="312"/>
      <point x="74" y="289" type="curve" smooth="yes"/>
      <point x="74" y="265"/>
      <point x="83" y="240"/>
    </contour>
  </outline>
</glyph>
<glyph name="period" format="2">
  <advance width="219"/>
  <unicode hex="002E"/>
  <outline>
    <contour>
      <point x="80" y="0" type="curve" smooth="yes"/>
      <point x="113" y="0"/>
      <point x="143" y="30"/>
      <point x="143" y="65" type="curve" smooth="yes"/>
      <point x="143" y="98"/>
      <point x="113" y="126"/>
      <point x="80" y="126" type="curve" smooth="yes"/>
      <point x="45" y="126"/>
      <point x="18" y="98"/>
      <point x="18" y="65" type="curve" smooth="yes"/>
      <point x="18" y="30"/>
      <point x="45" y="0"/>
    </contour>
  </outline>
</glyph>
<glyph name="slash" format="2">
	<advance width="306"/>
	<unicode hex="002F"/>
	<outline>
		<contour>
			<point x="383" y="585" type="line" smooth="yes"/>
			<point x="401" y="620"/>
			<point x="373" y="648"/>
			<point x="343" y="650" type="curve" smooth="yes"/>
			<point x="323" y="651"/>
			<point x="300" y="642"/>
			<point x="287" y="618" type="curve" smooth="yes"/>
			<point x="-1" y="63" type="line" smooth="yes"/>
			<point x="-19" y="29"/>
			<point x="9" y="2"/>
			<point x="41" y="0" type="curve" smooth="yes"/>
			<point x="60" y="-1"/>
			<point x="83" y="7"/>
			<point x="94" y="28" type="curve" smooth="yes"/>
		</contour>
	</outline>
</glyph>
<glyph name="zero" format="2">
	<advance width="473"/>
	<unicode hex="0030"/>
	<outline>
		<contour>
			<point x="149" y="-6" type="curve" smooth="yes"/>
			<point x="302" y="-5"/>
			<point x="451" y="236"/>
			<point x="451" y="399" type="curve" smooth="yes"/>
			<point x="451" y="469"/>
			<point x="420" y="568"/>
			<point x="305" y="568" type="curve" smooth="yes"/>
			<point x="116" y="568"/>
			<point x="22" y="278"/>
			<point x="22" y="168" type="curve" smooth="yes"/>
			<point x="22" y="92"/>
			<point x="61" y="-7"/>
		</contour>
		<contour>
			<point x="179" y="87" type="curve" smooth="yes"/>
			<point x="153" y="87"/>
			<point x="121" y="108"/>
			<point x="121" y="164" type="curve" smooth="yes"/>
			<point x="121" y="269"/>
			<point x="207" y="475"/>
			<point x="307" y="475" type="curve" smooth="yes"/>
			<point x="343" y="475"/>
			<point x="351" y="449"/>
			<point x="351" y="401" type="curve" smooth="yes"/>
			<point x="351" y="242"/>
			<point x="224" y="87"/>
		</contour>
	</outline>
</glyph>
<glyph name="one" format="2">
	<advance width="372"/>
	<unicode hex="0031"/>
	<outline>
		<contour>
			<point x="288" y="516" type="line" smooth="yes"/>
			<point x="296" y="546"/>
			<point x="273" y="566"/>
			<point x="246" y="568" type="curve" smooth="yes"/>
			<point x="223" y="570"/>
			<point x="197" y="557"/>
			<point x="190" y="530" type="curve" smooth="yes"/>
			<point x="71" y="55" type="line" smooth="yes"/>
			<point x="63" y="25"/>
			<point x="86" y="2"/>
			<point x="114" y="0" type="curve" smooth="yes"/>
			<point x="136" y="-1"/>
			<point x="160" y="11"/>
			<point x="167" y="38" type="curve" smooth="yes"/>
		</contour>
	</outline>
</glyph>
<glyph name="two" format="2">
  <advance width="450"/>
  <unicode hex="0032"/>
  <outline>
    <contour>
      <point x="72" y="0" type="curve" smooth="yes"/>
      <point x="314" y="0" type="line" smooth="yes"/>
      <point x="355" y="0"/>
      <point x="365" y="26"/>
      <point x="365" y="49" type="curve" smooth="yes"/>
      <point x="365" y="73"/>
      <point x="358" y="96"/>
      <point x="314" y="96" type="curve" smooth="yes"/>
      <point x="110" y="96" type="line"/>
      <point x="140" y="48" type="line"/>
      <point x="218" y="125"/>
      <point x="335" y="257"/>
      <point x="347" y="270" type="curve" smooth="yes"/>
      <point x="432" y="374"/>
      <point x="485" y="449"/>
      <point x="485" y="522" type="curve" smooth="yes"/>
      <point x="485" y="591"/>
      <point x="430" y="650"/>
      <point x="350" y="650" type="curve" smooth="yes"/>
      <point x="287" y="650"/>
      <point x="217" y="623"/>
      <point x="174" y="586" type="curve" smooth="yes"/>
      <point x="125" y="546"/>
      <point x="146" y="521"/>
      <point x="160" y="506" type="curve" smooth="yes"/>
      <point x="172" y="492"/>
      <point x="192" y="470"/>
      <point x="243" y="513" type="curve" smooth="yes"/>
      <point x="270" y="535"/>
      <point x="314" y="554"/>
      <point x="350" y="554" type="curve" smooth="yes"/>
      <point x="372" y="554"/>
      <point x="384" y="536"/>
      <point x="384" y="520" type="curve" smooth="yes"/>
      <point x="384" y="482"/>
      <point x="338" y="413"/>
      <point x="270" y="336" type="curve" smooth="yes"/>
      <point x="245" y="307"/>
      <point x="159" y="209"/>
      <point x="41" y="91" type="curve" smooth="yes"/>
      <point x="-24" y="26"/>
      <point x="26.0" y="0"/>
    </contour>
  </outline>
</glyph>
<glyph name="three" format="2">
	<advance width="479"/>
	<unicode hex="0033"/>
	<outline>
		<contour>
			<point x="100" y="229" type="line"/>
			<point x="157" y="255"/>
			<point x="191" y="265"/>
			<point x="216" y="265" type="curve" smooth="yes"/>
			<point x="250" y="265"/>
			<point x="258" y="250"/>
			<point x="258" y="219" type="curve" smooth="yes"/>
			<point x="258" y="143"/>
			<point x="173" y="87"/>
			<point x="119" y="87" type="curve" smooth="yes"/>
			<point x="88" y="87"/>
			<point x="79" y="89"/>
			<point x="67" y="98" type="curve" smooth="yes"/>
			<point x="35" y="123"/>
			<point x="2" y="110"/>
			<point x="-11" y="92" type="curve" smooth="yes"/>
			<point x="-22" y="74"/>
			<point x="-24" y="51"/>
			<point x="8" y="26" type="curve" smooth="yes"/>
			<point x="33" y="4"/>
			<point x="69" y="-4"/>
			<point x="119" y="-4" type="curve" smooth="yes"/>
			<point x="218" y="-4"/>
			<point x="356" y="94"/>
			<point x="356" y="220" type="curve" smooth="yes"/>
			<point x="356" y="300"/>
			<point x="298" y="356"/>
			<point x="212" y="356" type="curve" smooth="yes"/>
			<point x="171" y="356"/>
			<point x="121" y="343"/>
			<point x="71" y="316" type="curve"/>
		</contour>
		<contour>
			<point x="274" y="478" type="line"/>
			<point x="382" y="568" type="line"/>
			<point x="143" y="568" type="line" smooth="yes"/>
			<point x="111" y="568"/>
			<point x="93" y="547"/>
			<point x="93" y="522" type="curve" smooth="yes"/>
			<point x="93" y="498"/>
			<point x="111" y="478"/>
			<point x="143" y="478" type="curve" smooth="yes"/>
		</contour>
		<contour>
			<point x="414" y="490" type="line" smooth="yes"/>
			<point x="424" y="499"/>
			<point x="431" y="511"/>
			<point x="431" y="524" type="curve" smooth="yes"/>
			<point x="431" y="536"/>
			<point x="427" y="546"/>
			<point x="417" y="556" type="curve" smooth="yes"/>
			<point x="409" y="564"/>
			<point x="394" y="568"/>
			<point x="380" y="568" type="curve" smooth="yes"/>
			<point x="367" y="567"/>
			<point x="354" y="560"/>
			<point x="346" y="553" type="curve" smooth="yes"/>
			<point x="69" y="312" type="line" smooth="yes"/>
			<point x="55" y="300"/>
			<point x="51" y="286"/>
			<point x="53" y="270" type="curve" smooth="yes"/>
			<point x="55" y="262"/>
			<point x="59" y="254"/>
			<point x="65" y="247" type="curve" smooth="yes"/>
			<point x="72" y="237"/>
			<point x="87" y="232"/>
			<point x="101" y="232" type="curve" smooth="yes"/>
			<point x="114" y="232"/>
			<point x="130" y="238"/>
			<point x="138" y="247" type="curve"/>
		</contour>
	</outline>
</glyph>
<glyph name="four" format="2">
	<advance width="410"/>
	<unicode hex="0034"/>
	<outline>
		<contour>
			<point x="211" y="512" type="line" smooth="yes"/>
			<point x="219" y="542"/>
			<point x="196" y="565"/>
			<point x="169" y="567" type="curve" smooth="yes"/>
			<point x="146" y="568"/>
			<point x="121" y="557"/>
			<point x="114" y="528" type="curve" smooth="yes"/>
			<point x="22" y="167" type="line" smooth="yes"/>
			<point x="16" y="143"/>
			<point x="37" y="118"/>
			<point x="67" y="116" type="curve" smooth="yes"/>
			<point x="93" y="114"/>
			<point x="114" y="130"/>
			<point x="120" y="155" type="curve" smooth="yes"/>
		</contour>
		<contour>
			<point x="308" y="259" type="line" smooth="yes"/>
			<point x="316" y="288"/>
			<point x="296" y="307"/>
			<point x="272" y="314" type="curve" smooth="yes"/>
			<point x="249" y="320"/>
			<point x="219" y="309"/>
			<point x="211" y="278" type="curve" smooth="yes"/>
			<point x="155" y="56" type="line" smooth="yes"/>
			<point x="147" y="25"/>
			<point x="166" y="3"/>
			<point x="193" y="-1" type="curve" smooth="yes"/>
			<point x="216" y="-5"/>
			<point x="243" y="7"/>
			<point x="251" y="38" type="curve" smooth="yes"/>
		</contour>
		<contour>
			<point x="61" y="116" type="line"/>
			<point x="350" y="116" type="line" smooth="yes"/>
			<point x="378" y="116"/>
			<point x="400" y="136"/>
			<point x="400" y="160" type="curve" smooth="yes"/>
			<point x="400" y="185"/>
			<point x="378" y="203"/>
			<point x="350" y="203" type="curve" smooth="yes"/>
			<point x="122" y="203" type="line"/>
		</contour>
	</outline>
</glyph>
<glyph name="five" format="2">
	<advance width="394"/>
	<unicode hex="0035"/>
	<outline>
		<contour>
			<point x="120" y="250" type="line"/>
			<point x="140" y="258"/>
			<point x="165" y="264"/>
			<point x="191" y="264" type="curve" smooth="yes"/>
			<point x="243" y="264"/>
			<point x="263" y="228"/>
			<point x="263" y="190" type="curve" smooth="yes"/>
			<point x="263" y="135"/>
			<point x="224" y="84"/>
			<point x="176" y="84" type="curve" smooth="yes"/>
			<point x="132" y="84"/>
			<point x="114" y="105"/>
			<point x="98" y="119" type="curve" smooth="yes"/>
			<point x="87" y="130"/>
			<point x="72" y="135"/>
			<point x="60" y="135" type="curve" smooth="yes"/>
			<point x="38" y="135"/>
			<point x="12" y="119"/>
			<point x="12" y="92" type="curve" smooth="yes"/>
			<point x="12" y="79"/>
			<point x="18" y="65"/>
			<point x="30" y="53" type="curve" smooth="yes"/>
			<point x="45" y="38"/>
			<point x="90" y="-4"/>
			<point x="178" y="-4" type="curve" smooth="yes"/>
			<point x="284" y="-4"/>
			<point x="361" y="96"/>
			<point x="361" y="191" type="curve" smooth="yes"/>
			<point x="361" y="275"/>
			<point x="294" y="356"/>
			<point x="189" y="356" type="curve" smooth="yes"/>
			<point x="173" y="356"/>
			<point x="162" y="354"/>
			<point x="153" y="350" type="curve"/>
		</contour>
		<contour>
			<point x="219" y="521" type="line"/>
			<point x="181" y="566" type="line"/>
			<point x="147" y="567"/>
			<point x="129" y="561"/>
			<point x="120" y="524" type="curve" smooth="yes"/>
			<point x="64" y="303" type="line" smooth="yes"/>
			<point x="57" y="274"/>
			<point x="78" y="253"/>
			<point x="106" y="250" type="curve" smooth="yes"/>
			<point x="129" y="248"/>
			<point x="153" y="262"/>
			<point x="160" y="288" type="curve" smooth="yes"/>
		</contour>
		<contour>
			<point x="198" y="476" type="line"/>
			<point x="364" y="476" type="line" smooth="yes"/>
			<point x="395" y="476"/>
			<point x="413" y="496"/>
			<point x="413" y="521" type="curve" smooth="yes"/>
			<point x="413" y="545"/>
			<point x="395" y="566"/>
			<point x="364" y="566" type="curve" smooth="yes"/>
			<point x="179" y="566" type="line"/>
		</contour>
	</outline>
</glyph>
<glyph name="six" format="2">
	<advance width="371"/>
	<unicode hex="0036"/>
	<outline>
		<contour>
			<point x="107" y="97" type="line"/>
			<point x="101" y="188"/>
			<point x="123" y="257"/>
			<point x="187" y="349" type="curve" smooth="yes"/>
			<point x="211" y="382"/>
			<point x="265" y="441"/>
			<point x="328" y="485" type="curve" smooth="yes"/>
			<point x="344" y="496"/>
			<point x="352" y="510"/>
			<point x="352" y="526" type="curve" smooth="yes"/>
			<point x="350" y="549"/>
			<point x="331" y="568"/>
			<point x="306" y="568" type="curve" smooth="yes"/>
			<point x="297" y="568"/>
			<point x="283" y="565"/>
			<point x="273" y="559" type="curve" smooth="yes"/>
			<point x="227" y="533"/>
			<point x="135" y="441"/>
			<point x="104" y="398" type="curve" smooth="yes"/>
			<point x="37" y="302"/>
			<point x="10" y="219"/>
			<point x="10" y="118" type="curve"/>
		</contour>
		<contour>
			<point x="10" y="118" type="line"/>
			<point x="11" y="46"/>
			<point x="58" y="0"/>
			<point x="134" y="0" type="curve" smooth="yes"/>
			<point x="241" y="0"/>
			<point x="348" y="141"/>
			<point x="348" y="247" type="curve" smooth="yes"/>
			<point x="348" y="317"/>
			<point x="304" y="354"/>
			<point x="239" y="354" type="curve" smooth="yes"/>
			<point x="135" y="354"/>
			<point x="73" y="305"/>
			<point x="39" y="243" type="curve"/>
		</contour>
		<contour>
			<point x="136" y="90" type="curve" smooth="yes"/>
			<point x="118" y="90"/>
			<point x="107" y="100"/>
			<point x="107" y="140" type="curve" smooth="yes"/>
			<point x="107" y="203"/>
			<point x="148" y="263"/>
			<point x="223" y="263" type="curve" smooth="yes"/>
			<point x="246" y="263"/>
			<point x="251" y="251"/>
			<point x="251" y="227" type="curve" smooth="yes"/>
			<point x="251" y="180"/>
			<point x="183" y="90"/>
		</contour>
	</outline>
</glyph>
<glyph name="seven" format="2">
	<advance width="413"/>
	<unicode hex="0037"/>
	<outline>
		<contour>
			<point x="365" y="516" type="line" smooth="yes"/>
			<point x="371" y="541"/>
			<point x="354" y="566"/>
			<point x="320" y="568" type="curve" smooth="yes"/>
			<point x="299" y="570"/>
			<point x="275" y="557"/>
			<point x="269" y="535" type="curve" smooth="yes"/>
			<point x="148" y="54" type="line" smooth="yes"/>
			<point x="140" y="23"/>
			<point x="163" y="2"/>
			<point x="190" y="0" type="curve" smooth="yes"/>
			<point x="213" y="-2"/>
			<point x="238" y="11"/>
			<point x="245" y="39" type="curve" smooth="yes"/>
		</contour>
		<contour>
			<point x="274" y="478" type="line"/>
			<point x="322" y="568" type="line"/>
			<point x="79" y="568" type="line" smooth="yes"/>
			<point x="49" y="568"/>
			<point x="28" y="546"/>
			<point x="28" y="523" type="curve" smooth="yes"/>
			<point x="28" y="498"/>
			<point x="49" y="478"/>
			<point x="79" y="478" type="curve" smooth="yes"/>
		</contour>
	</outline>
</glyph>
<glyph name="eight" format="2">
  <advance width="417"/>
  <unicode hex="0038"/>
  <outline>
    <contour>
      <point x="175" y="0" type="curve" smooth="yes"/>
      <point x="264" y="0"/>
      <point x="346" y="71"/>
      <point x="370" y="171" type="curve" smooth="yes"/>
      <point x="388" y="244"/>
      <point x="356" y="323"/>
      <point x="280" y="378" type="curve"/>
      <point x="220" y="297" type="line"/>
      <point x="260" y="270"/>
      <point x="279" y="229"/>
      <point x="270" y="187" type="curve" smooth="yes"/>
      <point x="258" y="138"/>
      <point x="224" y="97"/>
      <point x="180" y="97" type="curve" smooth="yes"/>
      <point x="148" y="97"/>
      <point x="136" y="128"/>
      <point x="143" y="161" type="curve" smooth="yes"/>
      <point x="154" y="208"/>
      <point x="200" y="254"/>
      <point x="274" y="299" type="curve" smooth="yes"/>
      <point x="366" y="355"/>
      <point x="419" y="417"/>
      <point x="435" y="481" type="curve" smooth="yes"/>
      <point x="459" y="578"/>
      <point x="403" y="650"/>
      <point x="306" y="650" type="curve" smooth="yes"/>
      <point x="227" y="650"/>
      <point x="157" y="608"/>
      <point x="133" y="514" type="curve" smooth="yes"/>
      <point x="114" y="438"/>
      <point x="144" y="357"/>
      <point x="216" y="304" type="curve"/>
      <point x="276" y="382" type="line"/>
      <point x="238" y="409"/>
      <point x="223" y="453"/>
      <point x="233" y="498" type="curve" smooth="yes"/>
      <point x="242" y="535"/>
      <point x="270" y="554"/>
      <point x="298" y="554" type="curve" smooth="yes"/>
      <point x="330" y="554"/>
      <point x="344" y="526"/>
      <point x="336" y="494" type="curve" smooth="yes"/>
      <point x="327" y="458"/>
      <point x="286" y="422"/>
      <point x="222" y="382" type="curve" smooth="yes"/>
      <point x="118" y="320"/>
      <point x="60" y="248"/>
      <point x="43" y="172" type="curve" smooth="yes"/>
      <point x="20" y="73"/>
      <point x="78" y="0"/>
    </contour>
  </outline>
</glyph>
<glyph name="nine" format="2">
	<advance width="389"/>
	<unicode hex="0039"/>
	<outline>
		<contour>
			<point x="355" y="519" type="line" smooth="yes"/>
			<point x="361" y="545"/>
			<point x="343" y="568"/>
			<point x="312" y="568" type="curve" smooth="yes"/>
			<point x="284" y="568"/>
			<point x="265" y="556"/>
			<point x="259" y="532" type="curve" smooth="yes"/>
			<point x="141" y="54" type="line" smooth="yes"/>
			<point x="134" y="25"/>
			<point x="156" y="1"/>
			<point x="182" y="0" type="curve" smooth="yes"/>
			<point x="205" y="-2"/>
			<point x="230" y="12"/>
			<point x="236" y="36" type="curve" smooth="yes"/>
		</contour>
		<contour>
			<point x="218" y="568" type="curve" smooth="yes"/>
			<point x="122" y="568"/>
			<point x="65" y="487"/>
			<point x="38" y="380" type="curve" smooth="yes"/>
			<point x="18" y="300"/>
			<point x="55" y="210"/>
			<point x="140" y="210" type="curve" smooth="yes"/>
			<point x="234" y="210"/>
			<point x="283" y="306"/>
			<point x="301" y="377" type="curve" smooth="yes"/>
			<point x="321" y="451"/>
			<point x="319" y="568"/>
		</contour>
		<contour>
			<point x="208" y="478" type="curve" smooth="yes"/>
			<point x="223" y="478"/>
			<point x="214" y="431"/>
			<point x="206" y="398" type="curve" smooth="yes"/>
			<point x="195" y="352"/>
			<point x="167" y="296"/>
			<point x="150" y="296" type="curve" smooth="yes"/>
			<point x="127" y="296"/>
			<point x="126" y="329"/>
			<point x="138" y="378" type="curve" smooth="yes"/>
			<point x="150" y="426"/>
			<point x="183" y="478"/>
		</contour>
	</outline>
</glyph>
<glyph name="colon" format="2">
	<advance width="175"/>
	<unicode hex="003A"/>
	<outline>
		<contour>
			<point x="66" y="175" type="curve" smooth="yes"/>
			<point x="96" y="175"/>
			<point x="122" y="202"/>
			<point x="122" y="232" type="curve" smooth="yes"/>
			<point x="122" y="261"/>
			<point x="96" y="285"/>
			<point x="67" y="285" type="curve" smooth="yes"/>
			<point x="36" y="285"/>
			<point x="12" y="259"/>
			<point x="12" y="231" type="curve" smooth="yes"/>
			<point x="12" y="203"/>
			<point x="36" y="175"/>
		</contour>
		<contour>
			<point x="14" y="-30" type="curve" smooth="yes"/>
			<point x="44" y="-30"/>
			<point x="70" y="-4"/>
			<point x="70" y="26" type="curve" smooth="yes"/>
			<point x="70" y="56"/>
			<point x="44" y="80"/>
			<point x="14" y="80" type="curve" smooth="yes"/>
			<point x="-17" y="80"/>
			<point x="-40" y="55"/>
			<point x="-40" y="26" type="curve" smooth="yes"/>
			<point x="-40" y="-3"/>
			<point x="-17" y="-30"/>
		</contour>
	</outline>
</glyph>
<glyph name="semicolon" format="2">
	<advance width="173"/>
	<unicode hex="003B"/>
	<outline>
		<contour>
			<point x="70" y="37" type="line" smooth="yes"/>
			<point x="78" y="69"/>
			<point x="58" y="90"/>
			<point x="31" y="95" type="curve" smooth="yes"/>
			<point x="7" y="100"/>
			<point x="-21" y="88"/>
			<point x="-28" y="59" type="curve" smooth="yes"/>
			<point x="-52" y="-38" type="line" smooth="yes"/>
			<point x="-60" y="-69"/>
			<point x="-41" y="-91"/>
			<point x="-16" y="-97" type="curve" smooth="yes"/>
			<point x="8" y="-103"/>
			<point x="39" y="-90"/>
			<point x="46" y="-60" type="curve" smooth="yes"/>
		</contour>
		<contour>
			<point x="64" y="175" type="curve" smooth="yes"/>
			<point x="94" y="175"/>
			<point x="120" y="202"/>
			<point x="120" y="232" type="curve" smooth="yes"/>
			<point x="120" y="261"/>
			<point x="94" y="285"/>
			<point x="65" y="285" type="curve" smooth="yes"/>
			<point x="34" y="285"/>
			<point x="10" y="259"/>
			<point x="10" y="231" type="curve" smooth="yes"/>
			<point x="10" y="203"/>
			<point x="34" y="175"/>
		</contour>
	</outline>
</glyph>
<glyph name="less" format="2">
  <advance width="412"/>
  <unicode hex="003C"/>
  <outline>
    <contour>
      <point x="279" y="106" type="line" smooth="yes"/>
      <point x="301" y="93"/>
      <point x="328" y="94"/>
      <point x="342" y="108" type="curve" smooth="yes"/>
      <point x="361.0" y="126.0"/>
      <point x="361" y="157"/>
      <point x="332" y="174" type="curve" smooth="yes"/>
      <point x="187" y="259" type="line"/>
      <point x="182" y="217" type="line"/>
      <point x="368" y="286" type="line" smooth="yes"/>
      <point x="404" y="299"/>
      <point x="404" y="320"/>
      <point x="399" y="339" type="curve" smooth="yes"/>
      <point x="394" y="358"/>
      <point x="377" y="381"/>
      <point x="339" y="366" type="curve" smooth="yes"/>
      <point x="119" y="282" type="line" smooth="yes"/>
      <point x="103" y="276"/>
      <point x="93" y="258"/>
      <point x="93" y="243" type="curve" smooth="yes"/>
      <point x="93" y="231"/>
      <point x="95" y="218"/>
      <point x="110" y="209" type="curve" smooth="yes"/>
    </contour>
  </outline>
</glyph>
<glyph name="equal" format="2">
	<advance width="384"/>
	<unicode hex="003D"/>
	<outline>
		<contour>
			<point x="294" y="248" type="line" smooth="yes"/>
			<point x="324" y="248"/>
			<point x="345" y="266"/>
			<point x="345" y="290" type="curve" smooth="yes"/>
			<point x="345" y="314"/>
			<point x="324" y="333"/>
			<point x="294" y="333" type="curve" smooth="yes"/>
			<point x="76" y="333" type="line" smooth="yes"/>
			<point x="46" y="333"/>
			<point x="25" y="314"/>
			<point x="25" y="290" type="curve" smooth="yes"/>
			<point x="25" y="266"/>
			<point x="46" y="248"/>
			<point x="76" y="248" type="curve" smooth="yes"/>
		</contour>
		<contour>
			<point x="257" y="97" type="line" smooth="yes"/>
			<point x="287" y="97"/>
			<point x="308" y="116"/>
			<point x="308" y="141" type="curve" smooth="yes"/>
			<point x="308" y="165"/>
			<point x="287" y="182"/>
			<point x="257" y="182" type="curve" smooth="yes"/>
			<point x="39" y="182" type="line" smooth="yes"/>
			<point x="9" y="182"/>
			<point x="-12" y="165"/>
			<point x="-12" y="141" type="curve" smooth="yes"/>
			<point x="-12" y="117"/>
			<point x="9" y="97"/>
			<point x="39" y="97" type="curve" smooth="yes"/>
		</contour>
	</outline>
</glyph>
<glyph name="greater" format="2">
	<advance width="357"/>
	<unicode hex="003E"/>
	<outline>
		<contour>
			<point x="265" y="144" type="line"/>
			<point x="183" y="204" type="line"/>
			<point x="10" y="128" type="line" smooth="yes"/>
			<point x="-21" y="114"/>
			<point x="-30" y="96"/>
			<point x="-26" y="73" type="curve" smooth="yes"/>
			<point x="-21" y="49"/>
			<point x="8" y="30"/>
			<point x="40" y="44" type="curve" smooth="yes"/>
		</contour>
		<contour>
			<point x="213" y="151" type="line" smooth="yes"/>
			<point x="237" y="133"/>
			<point x="267" y="137"/>
			<point x="283" y="158" type="curve" smooth="yes"/>
			<point x="297" y="179"/>
			<point x="297" y="200"/>
			<point x="272" y="218" type="curve" smooth="yes"/>
			<point x="109" y="339" type="line" smooth="yes"/>
			<point x="86" y="356"/>
			<point x="56" y="353"/>
			<point x="41" y="336" type="curve" smooth="yes"/>
			<point x="23" y="316"/>
			<point x="25" y="290"/>
			<point x="50" y="271" type="curve" smooth="yes"/>
		</contour>
	</outline>
</glyph>
<glyph name="question" format="2">
	<advance width="447"/>
	<unicode hex="003F"/>
	<outline>
		<contour>
			<point x="159" y="-24" type="curve" smooth="yes"/>
			<point x="188" y="-24"/>
			<point x="216" y="2"/>
			<point x="216" y="32" type="curve" smooth="yes"/>
			<point x="216" y="61"/>
			<point x="190" y="86"/>
			<point x="160" y="86" type="curve" smooth="yes"/>
			<point x="129" y="86"/>
			<point x="106" y="60"/>
			<point x="106" y="32" type="curve" smooth="yes"/>
			<point x="106" y="4"/>
			<point x="129" y="-24"/>
		</contour>
		<contour>
			<point x="280" y="310" type="line" smooth="yes"/>
			<point x="287" y="335"/>
			<point x="264" y="354"/>
			<point x="235" y="356" type="curve" smooth="yes"/>
			<point x="214" y="358"/>
			<point x="190" y="345"/>
			<point x="185" y="325" type="curve" smooth="yes"/>
			<point x="163" y="238" type="line" smooth="yes"/>
			<point x="156" y="212"/>
			<point x="168" y="181"/>
			<point x="197" y="176" type="curve" smooth="yes"/>
			<point x="223" y="171"/>
			<point x="249" y="192"/>
			<point x="257" y="223" type="curve" smooth="yes"/>
		</contour>
		<contour>
			<point x="214" y="267" type="line"/>
			<point x="389" y="256"/>
			<point x="456" y="353"/>
			<point x="490" y="492" type="curve" smooth="yes"/>
			<point x="511" y="577"/>
			<point x="431" y="654"/>
			<point x="334" y="654" type="curve" smooth="yes"/>
			<point x="217" y="654"/>
			<point x="156" y="586"/>
			<point x="133" y="493" type="curve" smooth="yes"/>
			<point x="124" y="458"/>
			<point x="141" y="439"/>
			<point x="162" y="434" type="curve" smooth="yes"/>
			<point x="187" y="427"/>
			<point x="219" y="443"/>
			<point x="227" y="476" type="curve" smooth="yes"/>
			<point x="239" y="524"/>
			<point x="260" y="565"/>
			<point x="322" y="565" type="curve" smooth="yes"/>
			<point x="373" y="565"/>
			<point x="405" y="545"/>
			<point x="395" y="504" type="curve" smooth="yes"/>
			<point x="384" y="460"/>
			<point x="367" y="345"/>
			<point x="235" y="356" type="curve"/>
		</contour>
	</outline>
</glyph>
<glyph name="at" format="2">
	<advance width="698"/>
	<unicode hex="0040"/>
	<outline>
		<contour>
			<point x="594" y="72" type="line"/>
			<point x="517" y="120" type="line"/>
			<point x="509" y="109" type="line" smooth="yes"/>
			<point x="503" y="101"/>
			<point x="492" y="91"/>
			<point x="486" y="91" type="curve" smooth="yes"/>
			<point x="476" y="91"/>
			<point x="477" y="106"/>
			<point x="490" y="158" type="curve" smooth="yes"/>
			<point x="525" y="297" type="line" smooth="yes"/>
			<point x="534" y="333"/>
			<point x="510" y="348"/>
			<point x="486" y="350" type="curve" smooth="yes"/>
			<point x="459" y="352"/>
			<point x="434" y="340"/>
			<point x="427" y="311" type="curve" smooth="yes"/>
			<point x="392" y="167" type="line" smooth="yes"/>
			<point x="373" y="90"/>
			<point x="380" y="0"/>
			<point x="459" y="0" type="curve" smooth="yes"/>
			<point x="505" y="0"/>
			<point x="555" y="16"/>
			<point x="580" y="52" type="curve" smooth="yes"/>
		</contour>
		<contour>
			<point x="360" y="350" type="curve" smooth="yes"/>
			<point x="245" y="350"/>
			<point x="177" y="261"/>
			<point x="159" y="160" type="curve" smooth="yes"/>
			<point x="146" y="84"/>
			<point x="187" y="-4"/>
			<point x="261" y="-4" type="curve" smooth="yes"/>
			<point x="370" y="-4"/>
			<point x="431" y="87"/>
			<point x="452" y="166" type="curve" smooth="yes"/>
			<point x="472" y="244"/>
			<point x="457" y="350"/>
		</contour>
		<contour>
			<point x="338" y="260" type="curve" smooth="yes"/>
			<point x="378" y="260"/>
			<point x="386" y="213"/>
			<point x="376" y="179" type="curve" smooth="yes"/>
			<point x="363" y="134"/>
			<point x="334" y="85"/>
			<point x="286" y="85" type="curve" smooth="yes"/>
			<point x="258" y="85"/>
			<point x="253" y="125"/>
			<point x="261" y="174" type="curve" smooth="yes"/>
			<point x="269" y="212"/>
			<point x="295" y="260"/>
		</contour>
		<contour>
			<point x="420" y="-139" type="curve" smooth="yes"/>
			<point x="436" y="-133"/>
			<point x="452" y="-105"/>
			<point x="441" y="-80" type="curve" smooth="yes"/>
			<point x="430" y="-55"/>
			<point x="401" y="-51"/>
			<point x="386" y="-56" type="curve" smooth="yes"/>
			<point x="317" y="-79"/>
			<point x="233" y="-87"/>
			<point x="169" y="-25" type="curve" smooth="yes"/>
			<point x="125" y="17"/>
			<point x="81" y="88"/>
			<point x="109" y="200" type="curve" smooth="yes"/>
			<point x="146" y="348"/>
			<point x="256" y="424"/>
			<point x="416" y="424" type="curve" smooth="yes"/>
			<point x="540" y="424"/>
			<point x="600" y="361"/>
			<point x="578" y="274" type="curve" smooth="yes"/>
			<point x="561" y="207"/>
			<point x="548" y="158"/>
			<point x="514" y="116" type="curve"/>
			<point x="591" y="67" type="line"/>
			<point x="639" y="139"/>
			<point x="655" y="192"/>
			<point x="671" y="256" type="curve" smooth="yes"/>
			<point x="705" y="390"/>
			<point x="613" y="514"/>
			<point x="423" y="514" type="curve" smooth="yes"/>
			<point x="230" y="514"/>
			<point x="69" y="429"/>
			<point x="16" y="218" type="curve" smooth="yes"/>
			<point x="-22" y="67"/>
			<point x="45" y="-38"/>
			<point x="115" y="-98" type="curve" smooth="yes"/>
			<point x="208" y="-177"/>
			<point x="330" y="-173"/>
		</contour>
	</outline>
</glyph>
<glyph name="A" format="2">
  <advance width="494"/>
  <unicode hex="0041"/>
  <outline>
    <contour>
      <point x="42" y="0" type="curve" smooth="yes"/>
      <point x="72" y="0"/>
      <point x="81" y="6"/>
      <point x="98" y="34" type="curve" smooth="yes"/>
      <point x="395" y="516" type="line"/>
      <point x="344" y="530" type="line"/>
      <point x="349" y="46" type="line"/>
      <point x="349" y="26"/>
      <point x="352" y="0"/>
      <point x="399" y="0" type="curve" smooth="yes"/>
      <point x="436" y="0"/>
      <point x="449" y="19"/>
      <point x="449" y="49" type="curve" smooth="yes"/>
      <point x="442" y="605" type="line" smooth="yes"/>
      <point x="442" y="625"/>
      <point x="425" y="650"/>
      <point x="393" y="650" type="curve" smooth="yes"/>
      <point x="362" y="650"/>
      <point x="354" y="637"/>
      <point x="340" y="616" type="curve" smooth="yes"/>
      <point x="5" y="72" type="line" smooth="yes"/>
      <point x="-25" y="23"/>
      <point x="11" y="0"/>
    </contour>
    <contour>
      <point x="174" y="239" type="line"/>
      <point x="400" y="239" type="line"/>
      <point x="398" y="335" type="line"/>
      <point x="228" y="335" type="line"/>
    </contour>
  </outline>
</glyph>
<glyph name="B" format="2">
  <advance width="477"/>
  <unicode hex="0042"/>
  <outline>
    <contour>
      <point x="175" y="322" type="line"/>
      <point x="362" y="311"/>
      <point x="453" y="348"/>
      <point x="476" y="440" type="curve" smooth="yes"/>
      <point x="505" y="564"/>
      <point x="429" y="650"/>
      <point x="238" y="650" type="curve"/>
      <point x="243" y="554" type="line"/>
      <point x="328" y="554"/>
      <point x="394" y="525"/>
      <point x="377" y="458" type="curve" smooth="yes"/>
      <point x="364" y="404"/>
      <point x="290" y="382"/>
      <point x="189" y="387" type="curve"/>
    </contour>
    <contour>
      <point x="91" y="0" type="line"/>
      <point x="311" y="0"/>
      <point x="422" y="58"/>
      <point x="446" y="153" type="curve" smooth="yes"/>
      <point x="478" y="280"/>
      <point x="395" y="348"/>
      <point x="189" y="367" type="curve"/>
      <point x="176" y="300" type="line"/>
      <point x="283" y="291"/>
      <point x="368" y="253"/>
      <point x="349" y="176" type="curve" smooth="yes"/>
      <point x="334" y="115"/>
      <point x="244" y="95"/>
      <point x="120" y="95" type="curve"/>
    </contour>
    <contour>
      <point x="91" y="0" type="curve" smooth="yes"/>
      <point x="115" y="0"/>
      <point x="135" y="6"/>
      <point x="145" y="46" type="curve" smooth="yes"/>
      <point x="280" y="586" type="line" smooth="yes"/>
      <point x="292" y="632"/>
      <point x="275" y="646"/>
      <point x="238" y="650" type="curve" smooth="yes"/>
      <point x="207" y="652"/>
      <point x="190" y="641"/>
      <point x="181" y="607" type="curve" smooth="yes"/>
      <point x="46" y="64" type="line" smooth="yes"/>
      <point x="38" y="29"/>
      <point x="59" y="0.0"/>
    </contour>
  </outline>
</glyph>
<glyph name="C" format="2">
  <advance width="463"/>
  <unicode hex="0043"/>
  <outline>
    <contour>
      <point x="226" y="0" type="curve" smooth="yes"/>
      <point x="286" y="0"/>
      <point x="361" y="44"/>
      <point x="424" y="141" type="curve" smooth="yes"/>
      <point x="450" y="181"/>
      <point x="452" y="195"/>
      <point x="452" y="202" type="curve" smooth="yes"/>
      <point x="452" y="222"/>
      <point x="436" y="245"/>
      <point x="408" y="247" type="curve" smooth="yes"/>
      <point x="386" y="248"/>
      <point x="372" y="239"/>
      <point x="346" y="199" type="curve" smooth="yes"/>
      <point x="304" y="135"/>
      <point x="262" y="97"/>
      <point x="227" y="97" type="curve" smooth="yes"/>
      <point x="173" y="97"/>
      <point x="169" y="193"/>
      <point x="179" y="276" type="curve" smooth="yes"/>
      <point x="197" y="436"/>
      <point x="256" y="553"/>
      <point x="351" y="553" type="curve" smooth="yes"/>
      <point x="374" y="553"/>
      <point x="389" y="538"/>
      <point x="397" y="514" type="curve"/>
      <point x="409" y="486"/>
      <point x="435" y="474"/>
      <point x="463" y="483" type="curve" smooth="yes"/>
      <point x="490" y="491"/>
      <point x="502" y="512"/>
      <point x="495" y="540" type="curve" smooth="yes"/>
      <point x="477" y="613"/>
      <point x="429" y="650"/>
      <point x="356" y="650" type="curve" smooth="yes"/>
      <point x="216" y="650"/>
      <point x="104" y="515"/>
      <point x="75" y="274" type="curve" smooth="yes"/>
      <point x="54" y="91"/>
      <point x="121" y="0"/>
    </contour>
  </outline>
</glyph>
<glyph name="D" format="2">
	<advance width="537"/>
	<unicode hex="0044"/>
	<outline>
		<contour>
			<point x="135" y="0" type="line" smooth="yes"/>
			<point x="328" y="0"/>
			<point x="442" y="140"/>
			<point x="493" y="345" type="curve" smooth="yes"/>
			<point x="536" y="517"/>
			<point x="432" y="650"/>
			<point x="212" y="650" type="curve" smooth="yes"/>
			<point x="190" y="650" type="line"/>
			<point x="210" y="560" type="line"/>
			<point x="231" y="560" type="line" smooth="yes"/>
			<point x="364" y="560"/>
			<point x="422" y="470"/>
			<point x="393" y="352" type="curve" smooth="yes"/>
			<point x="350" y="178"/>
			<point x="273" y="90"/>
			<point x="135" y="90" type="curve" smooth="yes"/>
			<point x="97" y="90" type="line"/>
			<point x="37" y="0" type="line"/>
		</contour>
		<contour>
			<point x="39" y="0" type="curve" smooth="yes"/>
			<point x="74" y="0"/>
			<point x="90" y="18"/>
			<point x="95" y="39" type="curve" smooth="yes"/>
			<point x="233" y="591" type="line" smooth="yes"/>
			<point x="243" y="632"/>
			<point x="218" y="650"/>
			<point x="192" y="650" type="curve" smooth="yes"/>
			<point x="159" y="650"/>
			<point x="141" y="637"/>
			<point x="134" y="609" type="curve" smooth="yes"/>
			<point x="-4" y="57" type="line" smooth="yes"/>
			<point x="-11" y="28"/>
			<point x="7" y="0"/>
		</contour>
	</outline>
</glyph>
<glyph name="E" format="2">
	<advance width="529"/>
	<unicode hex="0045"/>
	<outline>
		<contour>
			<point x="233" y="591" type="line" smooth="yes"/>
			<point x="241" y="622"/>
			<point x="228" y="650"/>
			<point x="191" y="650" type="curve" smooth="yes"/>
			<point x="160" y="650"/>
			<point x="142" y="638"/>
			<point x="134" y="608" type="curve" smooth="yes"/>
			<point x="-5" y="56" type="line" smooth="yes"/>
			<point x="-12" y="27"/>
			<point x="7" y="0"/>
			<point x="40" y="0" type="curve" smooth="yes"/>
			<point x="73" y="0"/>
			<point x="91" y="18"/>
			<point x="96" y="39" type="curve" smooth="yes"/>
		</contour>
		<contour>
			<point x="37" y="0" type="line"/>
			<point x="378" y="0" type="line" smooth="yes"/>
			<point x="411" y="0"/>
			<point x="430" y="23"/>
			<point x="430" y="48" type="curve" smooth="yes"/>
			<point x="430" y="73"/>
			<point x="411" y="94"/>
			<point x="378" y="94" type="curve" smooth="yes"/>
			<point x="96" y="94" type="line"/>
		</contour>
		<contour>
			<point x="143" y="283" type="line"/>
			<point x="436" y="283" type="line" smooth="yes"/>
			<point x="468" y="283"/>
			<point x="487" y="303"/>
			<point x="487" y="328" type="curve" smooth="yes"/>
			<point x="487" y="353"/>
			<point x="468" y="373"/>
			<point x="436" y="373" type="curve" smooth="yes"/>
			<point x="165" y="373" type="line"/>
		</contour>
		<contour>
			<point x="212" y="555" type="line"/>
			<point x="517" y="555" type="line" smooth="yes"/>
			<point x="549" y="555"/>
			<point x="568" y="577"/>
			<point x="568" y="602" type="curve" smooth="yes"/>
			<point x="568" y="627"/>
			<point x="549" y="649"/>
			<point x="517" y="649" type="curve" smooth="yes"/>
			<point x="187" y="649" type="line"/>
		</contour>
	</outline>
</glyph>
<glyph name="F" format="2">
  <advance width="465"/>
  <unicode hex="0046"/>
  <outline>
    <contour>
      <point x="92" y="0" type="curve" smooth="yes"/>
      <point x="129" y="0"/>
      <point x="140" y="25"/>
      <point x="145" y="43" type="curve" smooth="yes"/>
      <point x="279" y="584" type="line" smooth="yes"/>
      <point x="290" y="629"/>
      <point x="277" y="650"/>
      <point x="237" y="650" type="curve" smooth="yes"/>
      <point x="201" y="650"/>
      <point x="188" y="634"/>
      <point x="181" y="606" type="curve" smooth="yes"/>
      <point x="46" y="61" type="line" smooth="yes"/>
      <point x="37" y="28"/>
      <point x="54" y="0"/>
    </contour>
    <contour>
      <point x="149" y="275" type="line"/>
      <point x="351" y="275" type="line" smooth="yes"/>
      <point x="385" y="275"/>
      <point x="402" y="296"/>
      <point x="402" y="323" type="curve" smooth="yes"/>
      <point x="402" y="351"/>
      <point x="386" y="371"/>
      <point x="351" y="371" type="curve" smooth="yes"/>
      <point x="173" y="371" type="line"/>
    </contour>
    <contour>
      <point x="214" y="554" type="line"/>
      <point x="482" y="554" type="line" smooth="yes"/>
      <point x="515" y="554"/>
      <point x="533" y="575"/>
      <point x="533" y="602" type="curve" smooth="yes"/>
      <point x="533" y="630"/>
      <point x="516" y="650"/>
      <point x="482" y="650" type="curve"/>
      <point x="237" y="650" type="line"/>
    </contour>
  </outline>
</glyph>
<glyph name="G" format="2">
  <advance width="495"/>
  <unicode hex="0047"/>
  <outline>
    <contour>
      <point x="198" y="0" type="curve" smooth="yes"/>
      <point x="281" y="0"/>
      <point x="317" y="61"/>
      <point x="365" y="148" type="curve"/>
      <point x="349" y="154" type="line"/>
      <point x="325" y="60" type="line" smooth="yes"/>
      <point x="318" y="32"/>
      <point x="329" y="0"/>
      <point x="369" y="0" type="curve" smooth="yes"/>
      <point x="408" y="0"/>
      <point x="419" y="24"/>
      <point x="424" y="43" type="curve" smooth="yes"/>
      <point x="490" y="302" type="line" smooth="yes"/>
      <point x="501" y="343"/>
      <point x="470" y="363"/>
      <point x="443" y="363" type="curve" smooth="yes"/>
      <point x="416" y="363"/>
      <point x="403" y="354"/>
      <point x="366" y="264" type="curve" smooth="yes"/>
      <point x="326" y="165"/>
      <point x="268" y="96"/>
      <point x="204" y="96" type="curve" smooth="yes"/>
      <point x="141" y="96"/>
      <point x="181" y="309"/>
      <point x="194" y="359" type="curve" smooth="yes"/>
      <point x="224" y="481"/>
      <point x="280" y="553"/>
      <point x="353" y="553" type="curve" smooth="yes"/>
      <point x="373" y="553"/>
      <point x="384" y="537"/>
      <point x="393" y="514" type="curve" smooth="yes"/>
      <point x="403" y="488"/>
      <point x="427" y="473"/>
      <point x="458" y="483" type="curve" smooth="yes"/>
      <point x="489" y="492"/>
      <point x="499" y="516"/>
      <point x="490" y="542" type="curve" smooth="yes"/>
      <point x="464" y="616"/>
      <point x="418" y="650"/>
      <point x="357" y="650" type="curve" smooth="yes"/>
      <point x="233" y="650"/>
      <point x="137" y="547"/>
      <point x="91" y="366" type="curve" smooth="yes"/>
      <point x="23" y="93"/>
      <point x="89" y="0"/>
    </contour>
  </outline>
</glyph>
<glyph name="H" format="2">
  <advance width="566"/>
  <unicode hex="0048"/>
  <outline>
    <contour>
      <point x="92" y="0" type="curve" smooth="yes"/>
      <point x="133" y="0"/>
      <point x="142" y="25"/>
      <point x="146" y="43" type="curve" smooth="yes"/>
      <point x="280" y="586" type="line" smooth="yes"/>
      <point x="289" y="630"/>
      <point x="268" y="650"/>
      <point x="236" y="650" type="curve" smooth="yes"/>
      <point x="203" y="650"/>
      <point x="189" y="635"/>
      <point x="181" y="606" type="curve" smooth="yes"/>
      <point x="46" y="61" type="line" smooth="yes"/>
      <point x="37" y="28"/>
      <point x="54" y="0"/>
    </contour>
    <contour>
      <point x="132" y="300" type="line"/>
      <point x="494" y="300" type="line"/>
      <point x="518" y="396" type="line"/>
      <point x="155" y="396" type="line"/>
    </contour>
    <contour>
      <point x="402" y="0" type="curve" smooth="yes"/>
      <point x="439" y="0"/>
      <point x="452" y="23"/>
      <point x="456" y="40" type="curve" smooth="yes"/>
      <point x="589" y="589" type="line" smooth="yes"/>
      <point x="598" y="627"/>
      <point x="582" y="650"/>
      <point x="544" y="650" type="curve" smooth="yes"/>
      <point x="508" y="650"/>
      <point x="495" y="628"/>
      <point x="491" y="610" type="curve" smooth="yes"/>
      <point x="356" y="60" type="line" smooth="yes"/>
      <point x="350" y="34"/>
      <point x="355" y="0"/>
    </contour>
  </outline>
</glyph>
<glyph name="I" format="2">
  <advance width="410"/>
  <unicode hex="0049"/>
  <outline>
    <contour>
      <point x="123" y="22" type="line"/>
      <point x="228" y="22" type="line"/>
      <point x="378" y="626" type="line"/>
      <point x="275" y="628" type="line"/>
    </contour>
    <contour>
      <point x="203" y="554" type="curve" smooth="yes"/>
      <point x="435" y="554" type="line" smooth="yes"/>
      <point x="478" y="554"/>
      <point x="486" y="578"/>
      <point x="486" y="601" type="curve" smooth="yes"/>
      <point x="486" y="625"/>
      <point x="477" y="650"/>
      <point x="435" y="650" type="curve" smooth="yes"/>
      <point x="203" y="650" type="line" smooth="yes"/>
      <point x="161" y="650"/>
      <point x="152" y="625"/>
      <point x="152" y="601" type="curve" smooth="yes"/>
      <point x="152" y="578"/>
      <point x="160" y="554"/>
    </contour>
    <contour>
      <point x="67" y="0" type="curve" smooth="yes"/>
      <point x="299" y="0" type="line" smooth="yes"/>
      <point x="341" y="0"/>
      <point x="350" y="25"/>
      <point x="350" y="49" type="curve" smooth="yes"/>
      <point x="350" y="72"/>
      <point x="342" y="96"/>
      <point x="299" y="96" type="curve" smooth="yes"/>
      <point x="67" y="96" type="line" smooth="yes"/>
      <point x="24" y="96"/>
      <point x="16" y="72"/>
      <point x="16" y="49" type="curve" smooth="yes"/>
      <point x="16" y="25"/>
      <point x="25" y="0"/>
    </contour>
  </outline>
</glyph>
<glyph name="J" format="2">
	<advance width="361"/>
	<unicode hex="004A"/>
	<outline>
		<contour>
			<point x="340" y="611" type="curve" smooth="yes"/>
			<point x="243" y="211" type="line" smooth="yes"/>
			<point x="232" y="166"/>
			<point x="223" y="126"/>
			<point x="199" y="107" type="curve" smooth="yes"/>
			<point x="183" y="94"/>
			<point x="163" y="90"/>
			<point x="135" y="90" type="curve" smooth="yes"/>
			<point x="119" y="90"/>
			<point x="102" y="99"/>
			<point x="86" y="126" type="curve" smooth="yes"/>
			<point x="71" y="150"/>
			<point x="41" y="162"/>
			<point x="19" y="145" type="curve" smooth="yes"/>
			<point x="-6" y="127"/>
			<point x="-11" y="105"/>
			<point x="15" y="69" type="curve" smooth="yes"/>
			<point x="36" y="38"/>
			<point x="76" y="0"/>
			<point x="134" y="0" type="curve" smooth="yes"/>
			<point x="183" y="0"/>
			<point x="225" y="8"/>
			<point x="256" y="31" type="curve" smooth="yes"/>
			<point x="302" y="68"/>
			<point x="324" y="126"/>
			<point x="342" y="196" type="curve" smooth="yes"/>
			<point x="437" y="590" type="line" smooth="yes"/>
			<point x="448" y="632"/>
			<point x="421" y="648"/>
			<point x="395" y="650" type="curve" smooth="yes"/>
			<point x="368" y="652"/>
			<point x="346" y="637"/>
		</contour>
	</outline>
</glyph>
<glyph name="K" format="2">
	<advance width="523"/>
	<unicode hex="004B"/>
	<outline>
		<contour>
			<point x="199" y="316" type="line"/>
			<point x="537" y="559" type="line" smooth="yes"/>
			<point x="552" y="570"/>
			<point x="562" y="586"/>
			<point x="564" y="602" type="curve" smooth="yes"/>
			<point x="566" y="628"/>
			<point x="547" y="648"/>
			<point x="521" y="649" type="curve" smooth="yes"/>
			<point x="509" y="650"/>
			<point x="490" y="645"/>
			<point x="473" y="632" type="curve" smooth="yes"/>
			<point x="110" y="367" type="line"/>
			<point x="110" y="324" type="line"/>
		</contour>
		<contour>
			<point x="205" y="374" type="line"/>
			<point x="110" y="378" type="line"/>
			<point x="110" y="336" type="line"/>
			<point x="324" y="30" type="line"/>
			<point x="334" y="12"/>
			<point x="353" y="0"/>
			<point x="374" y="0" type="curve" smooth="yes"/>
			<point x="396" y="0"/>
			<point x="418" y="14"/>
			<point x="423" y="36" type="curve" smooth="yes"/>
			<point x="425" y="49"/>
			<point x="422" y="62"/>
			<point x="412" y="77" type="curve" smooth="yes"/>
		</contour>
		<contour>
			<point x="232" y="591" type="line" smooth="yes"/>
			<point x="241" y="627"/>
			<point x="219" y="650"/>
			<point x="190" y="650" type="curve" smooth="yes"/>
			<point x="162" y="650"/>
			<point x="140" y="638"/>
			<point x="133" y="608" type="curve" smooth="yes"/>
			<point x="-3" y="61" type="line" smooth="yes"/>
			<point x="-10" y="32"/>
			<point x="9" y="2"/>
			<point x="42" y="0" type="curve" smooth="yes"/>
			<point x="74" y="-2"/>
			<point x="93" y="19"/>
			<point x="99" y="45" type="curve" smooth="yes"/>
		</contour>
	</outline>
</glyph>
<glyph name="L" format="2">
  <advance width="426"/>
  <unicode hex="004C"/>
  <outline>
    <contour>
      <point x="92" y="0" type="curve" smooth="yes"/>
      <point x="129" y="0"/>
      <point x="141" y="25"/>
      <point x="146" y="43" type="curve" smooth="yes"/>
      <point x="280" y="584" type="line" smooth="yes"/>
      <point x="290" y="629"/>
      <point x="277" y="650"/>
      <point x="237" y="650" type="curve" smooth="yes"/>
      <point x="201" y="650"/>
      <point x="188" y="634"/>
      <point x="181" y="606" type="curve" smooth="yes"/>
      <point x="46" y="61" type="line" smooth="yes"/>
      <point x="37" y="28"/>
      <point x="54" y="0"/>
    </contour>
    <contour>
      <point x="93" y="0" type="line"/>
      <point x="336" y="0" type="line" smooth="yes"/>
      <point x="378" y="0"/>
      <point x="397" y="25"/>
      <point x="397" y="53" type="curve" smooth="yes"/>
      <point x="397" y="75"/>
      <point x="386" y="96"/>
      <point x="345" y="96" type="curve" smooth="yes"/>
      <point x="117" y="96" type="line"/>
    </contour>
  </outline>
</glyph>
<glyph name="M" format="2">
	<advance width="746"/>
	<unicode hex="004D"/>
	<outline>
		<contour>
			<point x="354" y="109" type="line"/>
			<point x="251" y="620" type="line" smooth="yes"/>
			<point x="247" y="641"/>
			<point x="217" y="650"/>
			<point x="191" y="650" type="curve"/>
			<point x="176" y="494" type="line"/>
			<point x="264" y="50" type="line" smooth="yes"/>
			<point x="271" y="14"/>
			<point x="303" y="0"/>
			<point x="339" y="0" type="curve"/>
		</contour>
		<contour>
			<point x="208" y="494" type="line"/>
			<point x="192" y="650" type="line"/>
			<point x="160" y="650"/>
			<point x="141" y="639"/>
			<point x="135" y="616" type="curve" smooth="yes"/>
			<point x="-5" y="55" type="line" smooth="yes"/>
			<point x="-12" y="27"/>
			<point x="5" y="0"/>
			<point x="34" y="0" type="curve" smooth="yes"/>
			<point x="66" y="0"/>
			<point x="88" y="15"/>
			<point x="94" y="40" type="curve" smooth="yes"/>
		</contour>
		<contour>
			<point x="637" y="0" type="curve"/>
			<point x="668" y="0"/>
			<point x="682" y="13"/>
			<point x="687" y="34" type="curve" smooth="yes"/>
			<point x="825" y="591" type="line" smooth="yes"/>
			<point x="833" y="623"/>
			<point x="820" y="646"/>
			<point x="787" y="650" type="curve"/>
			<point x="693" y="475" type="line"/>
			<point x="589" y="53" type="line" smooth="yes"/>
			<point x="583" y="27"/>
			<point x="608" y="0"/>
		</contour>
		<contour>
			<point x="320" y="87" type="line"/>
			<point x="333" y="0" type="line"/>
			<point x="369" y="0"/>
			<point x="391" y="18"/>
			<point x="408" y="40" type="curve" smooth="yes"/>
			<point x="736" y="479" type="line"/>
			<point x="788" y="650" type="line"/>
			<point x="752" y="650"/>
			<point x="732" y="641"/>
			<point x="716" y="620" type="curve" smooth="yes"/>
		</contour>
	</outline>
</glyph>
<glyph name="N" format="2">
	<advance width="494"/>
	<unicode hex="004E"/>
	<outline>
		<contour>
			<point x="335" y="32" type="line" smooth="yes"/>
			<point x="344" y="8"/>
			<point x="368" y="0"/>
			<point x="395" y="0" type="curve"/>
			<point x="394" y="151" type="line"/>
			<point x="224" y="615" type="line" smooth="yes"/>
			<point x="215" y="640"/>
			<point x="201" y="650"/>
			<point x="170" y="650" type="curve"/>
			<point x="161" y="507" type="line"/>
		</contour>
		<contour>
			<point x="41" y="0" type="curve" smooth="yes"/>
			<point x="74" y="0"/>
			<point x="89" y="19"/>
			<point x="95" y="42" type="curve" smooth="yes"/>
			<point x="211" y="508" type="line"/>
			<point x="174" y="650" type="line"/>
			<point x="154" y="650"/>
			<point x="141" y="641"/>
			<point x="132" y="605" type="curve" smooth="yes"/>
			<point x="-4" y="58" type="line" smooth="yes"/>
			<point x="-11" y="28"/>
			<point x="8" y="0"/>
		</contour>
		<contour>
			<point x="436" y="39" type="curve" smooth="yes"/>
			<point x="574" y="592" type="line" smooth="yes"/>
			<point x="584" y="632"/>
			<point x="560" y="650"/>
			<point x="533" y="650" type="curve" smooth="yes"/>
			<point x="505" y="650"/>
			<point x="482" y="638"/>
			<point x="475" y="609" type="curve" smooth="yes"/>
			<point x="361" y="151" type="line"/>
			<point x="393" y="0" type="line"/>
			<point x="418" y="0"/>
			<point x="429" y="10"/>
		</contour>
	</outline>
</glyph>
<glyph name="O" format="2">
  <advance width="495"/>
  <unicode hex="004F"/>
  <outline>
    <contour>
      <point x="226" y="0" type="curve" smooth="yes"/>
      <point x="346" y="0"/>
      <point x="453" y="124"/>
      <point x="501" y="345" type="curve" smooth="yes"/>
      <point x="545" y="548"/>
      <point x="477" y="650"/>
      <point x="356" y="650" type="curve" smooth="yes"/>
      <point x="216" y="650"/>
      <point x="104" y="515"/>
      <point x="75" y="274" type="curve" smooth="yes"/>
      <point x="54" y="91"/>
      <point x="121" y="0"/>
    </contour>
    <contour>
      <point x="227" y="97" type="curve" smooth="yes"/>
      <point x="173" y="97"/>
      <point x="168" y="193"/>
      <point x="178" y="276" type="curve" smooth="yes"/>
      <point x="197" y="436"/>
      <point x="256" y="553"/>
      <point x="351" y="553" type="curve" smooth="yes"/>
      <point x="417" y="553"/>
      <point x="419" y="446"/>
      <point x="399" y="354" type="curve" smooth="yes"/>
      <point x="366" y="205"/>
      <point x="306" y="97"/>
    </contour>
  </outline>
</glyph>
<glyph name="P" format="2">
	<advance width="503"/>
	<unicode hex="0050"/>
	<outline>
		<contour>
			<point x="141" y="291" type="line"/>
			<point x="287" y="291"/>
			<point x="474" y="290"/>
			<point x="516" y="461" type="curve" smooth="yes"/>
			<point x="550" y="598"/>
			<point x="409" y="650"/>
			<point x="188" y="650" type="curve"/>
			<point x="213" y="559" type="line"/>
			<point x="383" y="559"/>
			<point x="431" y="536"/>
			<point x="417" y="481" type="curve" smooth="yes"/>
			<point x="395" y="392"/>
			<point x="276" y="381"/>
			<point x="160" y="381" type="curve"/>
		</contour>
		<contour>
			<point x="233" y="594" type="line" smooth="yes"/>
			<point x="243" y="635"/>
			<point x="218" y="650"/>
			<point x="192" y="650" type="curve" smooth="yes"/>
			<point x="159" y="650"/>
			<point x="141" y="640"/>
			<point x="134" y="612" type="curve" smooth="yes"/>
			<point x="0" y="70" type="line"/>
			<point x="-9" y="40"/>
			<point x="10" y="11"/>
			<point x="43" y="8" type="curve" smooth="yes"/>
			<point x="79" y="6"/>
			<point x="94" y="30"/>
			<point x="99" y="52" type="curve" smooth="yes"/>
		</contour>
	</outline>
</glyph>
<glyph name="Q" format="2">
	<advance width="568"/>
	<unicode hex="0051"/>
	<outline>
		<contour>
			<point x="423" y="-30" type="curve" smooth="yes"/>
			<point x="449" y="-16"/>
			<point x="452" y="14"/>
			<point x="436" y="39" type="curve" smooth="yes"/>
			<point x="341" y="187" type="line" smooth="yes"/>
			<point x="325" y="213"/>
			<point x="288" y="220"/>
			<point x="263" y="201" type="curve" smooth="yes"/>
			<point x="244" y="186"/>
			<point x="238" y="166"/>
			<point x="258" y="135" type="curve" smooth="yes"/>
			<point x="350" y="-6" type="line" smooth="yes"/>
			<point x="368" y="-34"/>
			<point x="401" y="-45"/>
		</contour>
		<contour>
			<point x="228" y="0" type="curve" smooth="yes"/>
			<point x="390" y="0"/>
			<point x="491" y="249"/>
			<point x="528" y="419" type="curve" smooth="yes"/>
			<point x="552" y="539"/>
			<point x="490" y="650"/>
			<point x="352" y="650" type="curve" smooth="yes"/>
			<point x="221" y="650"/>
			<point x="160" y="556"/>
			<point x="115" y="416" type="curve" smooth="yes"/>
			<point x="104" y="379"/>
			<point x="92" y="334"/>
			<point x="87" y="292" type="curve" smooth="yes"/>
			<point x="70" y="158"/>
			<point x="109" y="0"/>
		</contour>
		<contour>
			<point x="230" y="95" type="curve" smooth="yes"/>
			<point x="193" y="95"/>
			<point x="176" y="193"/>
			<point x="186" y="276" type="curve" smooth="yes"/>
			<point x="191" y="314"/>
			<point x="199" y="352"/>
			<point x="208" y="382" type="curve" smooth="yes"/>
			<point x="247" y="504"/>
			<point x="279" y="556"/>
			<point x="345" y="556" type="curve" smooth="yes"/>
			<point x="442" y="556"/>
			<point x="438" y="481"/>
			<point x="425" y="426" type="curve" smooth="yes"/>
			<point x="396" y="280"/>
			<point x="310" y="95"/>
		</contour>
	</outline>
</glyph>
<glyph name="R" format="2">
	<advance width="538"/>
	<unicode hex="0052"/>
	<outline>
		<contour>
			<point x="137" y="284" type="line"/>
			<point x="273" y="284"/>
			<point x="487" y="318"/>
			<point x="521" y="455" type="curve" smooth="yes"/>
			<point x="557" y="601"/>
			<point x="395" y="650"/>
			<point x="189" y="650" type="curve"/>
			<point x="214" y="559" type="line"/>
			<point x="348" y="559"/>
			<point x="441" y="547"/>
			<point x="423" y="477" type="curve" smooth="yes"/>
			<point x="408" y="417"/>
			<point x="270" y="374"/>
			<point x="158" y="374" type="curve"/>
		</contour>
		<contour>
			<point x="233" y="304" type="line"/>
			<point x="114" y="298" type="line"/>
			<point x="321" y="27" type="line" smooth="yes"/>
			<point x="335" y="9"/>
			<point x="350" y="0"/>
			<point x="366" y="0" type="curve" smooth="yes"/>
			<point x="386" y="0"/>
			<point x="406" y="12"/>
			<point x="413" y="31" type="curve" smooth="yes"/>
			<point x="418" y="46"/>
			<point x="418" y="62"/>
			<point x="406" y="77" type="curve" smooth="yes"/>
		</contour>
		<contour>
			<point x="233" y="591" type="line" smooth="yes"/>
			<point x="243" y="632"/>
			<point x="218" y="650"/>
			<point x="192" y="650" type="curve" smooth="yes"/>
			<point x="159" y="650"/>
			<point x="141" y="637"/>
			<point x="134" y="609" type="curve" smooth="yes"/>
			<point x="-3" y="63" type="line" smooth="yes"/>
			<point x="-11" y="30"/>
			<point x="7" y="3"/>
			<point x="40" y="0" type="curve" smooth="yes"/>
			<point x="73" y="-2"/>
			<point x="89" y="18"/>
			<point x="96" y="45" type="curve" smooth="yes"/>
		</contour>
	</outline>
</glyph>
<glyph name="S" format="2">
	<advance width="509"/>
	<unicode hex="0053"/>
	<outline>
		<contour>
			<point x="189" y="0" type="curve" smooth="yes"/>
			<point x="327" y="0"/>
			<point x="438" y="39"/>
			<point x="470" y="165" type="curve" smooth="yes"/>
			<point x="492" y="258"/>
			<point x="412" y="326"/>
			<point x="347" y="379" type="curve" smooth="yes"/>
			<point x="281" y="431"/>
			<point x="230" y="459"/>
			<point x="236" y="482" type="curve" smooth="yes"/>
			<point x="246" y="523"/>
			<point x="324" y="556"/>
			<point x="387" y="556" type="curve" smooth="yes"/>
			<point x="440" y="556"/>
			<point x="451" y="549"/>
			<point x="461" y="522" type="curve" smooth="yes"/>
			<point x="472" y="492"/>
			<point x="502" y="482"/>
			<point x="524" y="487" type="curve" smooth="yes"/>
			<point x="552" y="493"/>
			<point x="563" y="514"/>
			<point x="558" y="538" type="curve" smooth="yes"/>
			<point x="542" y="610"/>
			<point x="500" y="650"/>
			<point x="400" y="650" type="curve" smooth="yes"/>
			<point x="269" y="650"/>
			<point x="157" y="583"/>
			<point x="138" y="504" type="curve" smooth="yes"/>
			<point x="116" y="412"/>
			<point x="213" y="363"/>
			<point x="273" y="313" type="curve" smooth="yes"/>
			<point x="342" y="257"/>
			<point x="381" y="224"/>
			<point x="371" y="184" type="curve" smooth="yes"/>
			<point x="354" y="115"/>
			<point x="293" y="94"/>
			<point x="212" y="94" type="curve" smooth="yes"/>
			<point x="163" y="94"/>
			<point x="150" y="103"/>
			<point x="142" y="126" type="curve" smooth="yes"/>
			<point x="132" y="156"/>
			<point x="99" y="166"/>
			<point x="78" y="162" type="curve" smooth="yes"/>
			<point x="51" y="157"/>
			<point x="38" y="135"/>
			<point x="43" y="111" type="curve" smooth="yes"/>
			<point x="57" y="44"/>
			<point x="118" y="0"/>
		</contour>
	</outline>
</glyph>
<glyph name="T" format="2">
	<advance width="444"/>
	<unicode hex="0054"/>
	<outline>
		<contour>
			<point x="119" y="0" type="curve" smooth="yes"/>
			<point x="153" y="0"/>
			<point x="170" y="17"/>
			<point x="175" y="39" type="curve" smooth="yes"/>
			<point x="308" y="573" type="line"/>
			<point x="205" y="573" type="line"/>
			<point x="77" y="59" type="line" smooth="yes"/>
			<point x="70" y="31"/>
			<point x="85" y="0"/>
		</contour>
		<contour>
			<point x="62" y="556" type="curve" smooth="yes"/>
			<point x="466" y="556" type="line" smooth="yes"/>
			<point x="498" y="556"/>
			<point x="517" y="578"/>
			<point x="517" y="603" type="curve" smooth="yes"/>
			<point x="517" y="628"/>
			<point x="498" y="650"/>
			<point x="466" y="650" type="curve" smooth="yes"/>
			<point x="62" y="650" type="line" smooth="yes"/>
			<point x="31" y="650"/>
			<point x="11" y="630"/>
			<point x="11" y="603" type="curve" smooth="yes"/>
			<point x="11" y="576"/>
			<point x="31" y="556"/>
		</contour>
	</outline>
</glyph>
<glyph name="U" format="2">
	<advance width="471"/>
	<unicode hex="0055"/>
	<outline>
		<contour>
			<point x="411" y="268" type="line"/>
			<point x="454" y="457" type="line"/>
			<point x="419" y="461" type="line"/>
			<point x="409" y="432" type="line" smooth="yes"/>
			<point x="381" y="351"/>
			<point x="344" y="296"/>
			<point x="325" y="271" type="curve" smooth="yes"/>
			<point x="257" y="184"/>
			<point x="170" y="90"/>
			<point x="138" y="90" type="curve" smooth="yes"/>
			<point x="117" y="90"/>
			<point x="120" y="139"/>
			<point x="134" y="194" type="curve" smooth="yes"/>
			<point x="234" y="593" type="line" smooth="yes"/>
			<point x="241" y="621"/>
			<point x="222" y="650"/>
			<point x="192" y="650" type="curve" smooth="yes"/>
			<point x="166" y="650"/>
			<point x="141" y="635"/>
			<point x="134" y="607" type="curve" smooth="yes"/>
			<point x="34" y="211" type="line" smooth="yes"/>
			<point x="0" y="77"/>
			<point x="53" y="-4"/>
			<point x="120" y="-4" type="curve" smooth="yes"/>
			<point x="221" y="-4"/>
			<point x="321" y="108"/>
			<point x="390" y="194" type="curve"/>
		</contour>
		<contour>
			<point x="551" y="594" type="line" smooth="yes"/>
			<point x="559" y="624"/>
			<point x="539" y="650"/>
			<point x="505" y="650" type="curve" smooth="yes"/>
			<point x="479" y="650"/>
			<point x="456" y="636"/>
			<point x="450" y="611" type="curve" smooth="yes"/>
			<point x="312" y="58" type="line" smooth="yes"/>
			<point x="304" y="24"/>
			<point x="328" y="2"/>
			<point x="357" y="0" type="curve" smooth="yes"/>
			<point x="380" y="-1"/>
			<point x="404" y="11"/>
			<point x="411" y="37" type="curve" smooth="yes"/>
		</contour>
	</outline>
</glyph>
<glyph name="V" format="2">
	<advance width="441"/>
	<unicode hex="0056"/>
	<outline>
		<contour>
			<point x="211" y="36" type="curve" smooth="yes"/>
			<point x="482" y="585" type="line" smooth="yes"/>
			<point x="500" y="622"/>
			<point x="474" y="649"/>
			<point x="442" y="649" type="curve" smooth="yes"/>
			<point x="415" y="649"/>
			<point x="395" y="638"/>
			<point x="384" y="611" type="curve"/>
			<point x="131" y="97" type="line"/>
			<point x="153" y="0" type="line"/>
			<point x="178" y="0"/>
			<point x="198" y="10"/>
		</contour>
		<contour>
			<point x="107" y="48" type="line" smooth="yes"/>
			<point x="109" y="15"/>
			<point x="131" y="0"/>
			<point x="157" y="0" type="curve"/>
			<point x="204" y="91" type="line"/>
			<point x="177" y="605" type="line" smooth="yes"/>
			<point x="176" y="628"/>
			<point x="158" y="649"/>
			<point x="125" y="649" type="curve" smooth="yes"/>
			<point x="94" y="649"/>
			<point x="75" y="629"/>
			<point x="77" y="599" type="curve" smooth="yes"/>
		</contour>
	</outline>
</glyph>
<glyph name="W" format="2">
  <advance width="698"/>
  <unicode hex="0057"/>
  <outline>
    <contour>
      <point x="193" y="0" type="curve" smooth="yes"/>
      <point x="215" y="0"/>
      <point x="235" y="10"/>
      <point x="248" y="39" type="curve" smooth="yes"/>
      <point x="459" y="508" type="line"/>
      <point x="410" y="509" type="line"/>
      <point x="416" y="53" type="line"/>
      <point x="416" y="15"/>
      <point x="435" y="0"/>
      <point x="467" y="0" type="curve" smooth="yes"/>
      <point x="489" y="0"/>
      <point x="509" y="10"/>
      <point x="522" y="39" type="curve" smooth="yes"/>
      <point x="772" y="582" type="line" smooth="yes"/>
      <point x="789" y="618"/>
      <point x="767" y="650"/>
      <point x="729" y="650" type="curve" smooth="yes"/>
      <point x="706" y="650"/>
      <point x="686" y="637"/>
      <point x="674" y="611" type="curve" smooth="yes"/>
      <point x="464" y="145" type="line"/>
      <point x="512" y="135" type="line"/>
      <point x="505" y="600" type="line" smooth="yes"/>
      <point x="505" y="630"/>
      <point x="489" y="650"/>
      <point x="455" y="650" type="curve" smooth="yes"/>
      <point x="431" y="650"/>
      <point x="411" y="636"/>
      <point x="400" y="611" type="curve" smooth="yes"/>
      <point x="186" y="136" type="line"/>
      <point x="238" y="123" type="line"/>
      <point x="232" y="600" type="line" smooth="yes"/>
      <point x="232" y="630"/>
      <point x="211" y="650"/>
      <point x="181" y="650" type="curve" smooth="yes"/>
      <point x="152" y="650"/>
      <point x="131" y="631"/>
      <point x="131" y="599" type="curve" smooth="yes"/>
      <point x="143" y="52" type="line" smooth="yes"/>
      <point x="144" y="14"/>
      <point x="161" y="0"/>
    </contour>
  </outline>
</glyph>
<glyph name="X" format="2">
	<advance width="552"/>
	<unicode hex="0058"/>
	<outline>
		<contour>
			<point x="-6" y="14" type="curve" smooth="yes"/>
			<point x="14" y="-6"/>
			<point x="54" y="-5"/>
			<point x="75" y="19" type="curve" smooth="yes"/>
			<point x="557" y="572" type="line" smooth="yes"/>
			<point x="578" y="597"/>
			<point x="572" y="621"/>
			<point x="554" y="638" type="curve" smooth="yes"/>
			<point x="536" y="655"/>
			<point x="496" y="655"/>
			<point x="475" y="630" type="curve" smooth="yes"/>
			<point x="-9" y="75" type="line" smooth="yes"/>
			<point x="-25" y="57"/>
			<point x="-25" y="31"/>
		</contour>
		<contour>
			<point x="405" y="5" type="curve" smooth="yes"/>
			<point x="426" y="14"/>
			<point x="440" y="35"/>
			<point x="430" y="62" type="curve" smooth="yes"/>
			<point x="221" y="618" type="line" smooth="yes"/>
			<point x="210" y="648"/>
			<point x="176" y="656"/>
			<point x="150" y="647" type="curve" smooth="yes"/>
			<point x="129" y="641"/>
			<point x="112" y="622"/>
			<point x="125" y="588" type="curve" smooth="yes"/>
			<point x="333" y="35" type="line" smooth="yes"/>
			<point x="344" y="6"/>
			<point x="379" y="-8"/>
		</contour>
	</outline>
</glyph>
<glyph name="Y" format="2">
	<advance width="359"/>
	<unicode hex="0059"/>
	<outline>
		<contour>
			<point x="179" y="315" type="line"/>
			<point x="237" y="443" type="line"/>
			<point x="172" y="618" type="line" smooth="yes"/>
			<point x="161" y="648"/>
			<point x="127" y="656"/>
			<point x="101" y="647" type="curve" smooth="yes"/>
			<point x="80" y="641"/>
			<point x="63" y="622"/>
			<point x="76" y="588" type="curve" smooth="yes"/>
		</contour>
		<contour>
			<point x="397" y="578" type="line" smooth="yes"/>
			<point x="408" y="602"/>
			<point x="404" y="630"/>
			<point x="378" y="645" type="curve" smooth="yes"/>
			<point x="357" y="656"/>
			<point x="320" y="650"/>
			<point x="308" y="624" type="curve" smooth="yes"/>
			<point x="55" y="69" type="line" smooth="yes"/>
			<point x="46" y="48"/>
			<point x="45" y="29"/>
			<point x="64" y="13" type="curve" smooth="yes"/>
			<point x="84" y="-3"/>
			<point x="130" y="-8"/>
			<point x="141" y="16" type="curve" smooth="yes"/>
		</contour>
	</outline>
</glyph>
<glyph name="Z" format="2">
	<advance width="532"/>
	<unicode hex="005A"/>
	<outline>
		<contour>
			<point x="563" y="573" type="line" smooth="yes"/>
			<point x="579" y="591"/>
			<point x="578" y="611"/>
			<point x="568" y="627" type="curve" smooth="yes"/>
			<point x="553" y="654"/>
			<point x="506" y="659"/>
			<point x="481" y="630" type="curve" smooth="yes"/>
			<point x="-7" y="75" type="line" smooth="yes"/>
			<point x="-37" y="40"/>
			<point x="-6" y="0"/>
			<point x="40" y="0" type="curve" smooth="yes"/>
			<point x="56" y="0"/>
			<point x="71" y="12"/>
			<point x="78" y="20" type="curve" smooth="yes"/>
		</contour>
		<contour>
			<point x="439" y="556" type="line"/>
			<point x="523" y="650" type="line"/>
			<point x="172" y="650" type="line" smooth="yes"/>
			<point x="141" y="650"/>
			<point x="121" y="630"/>
			<point x="121" y="603" type="curve" smooth="yes"/>
			<point x="121" y="576"/>
			<point x="141" y="556"/>
			<point x="172" y="556" type="curve" smooth="yes"/>
		</contour>
		<contour>
			<point x="38" y="0" type="line"/>
			<point x="386" y="0" type="line" smooth="yes"/>
			<point x="417" y="0"/>
			<point x="437" y="20"/>
			<point x="437" y="47" type="curve" smooth="yes"/>
			<point x="437" y="74"/>
			<point x="417" y="94"/>
			<point x="386" y="94" type="curve" smooth="yes"/>
			<point x="125" y="94" type="line"/>
		</contour>
	</outline>
</glyph>
<glyph name="bracketleft" format="2">
	<advance width="293"/>
	<unicode hex="005B"/>
	<outline>
		<contour>
			<point x="233" y="597" type="line" smooth="yes"/>
			<point x="243" y="636"/>
			<point x="219" y="648"/>
			<point x="192" y="650" type="curve" smooth="yes"/>
			<point x="162" y="652"/>
			<point x="141" y="640"/>
			<point x="134" y="613" type="curve" smooth="yes"/>
			<point x="-80" y="-248" type="line" smooth="yes"/>
			<point x="-87" y="-275"/>
			<point x="-69" y="-300"/>
			<point x="-35" y="-300" type="curve" smooth="yes"/>
			<point x="-2" y="-300"/>
			<point x="15" y="-281"/>
			<point x="20" y="-259" type="curve" smooth="yes"/>
		</contour>
		<contour>
			<point x="-36" y="-300" type="line"/>
			<point x="109" y="-300" type="line" smooth="yes"/>
			<point x="139" y="-300"/>
			<point x="156" y="-284"/>
			<point x="161" y="-258" type="curve" smooth="yes"/>
			<point x="166" y="-230"/>
			<point x="140" y="-215"/>
			<point x="109" y="-215" type="curve" smooth="yes"/>
			<point x="21" y="-215" type="line"/>
		</contour>
		<contour>
			<point x="181" y="565" type="line"/>
			<point x="324" y="565" type="line" smooth="yes"/>
			<point x="352" y="565"/>
			<point x="371" y="582"/>
			<point x="375" y="605" type="curve" smooth="yes"/>
			<point x="380" y="633"/>
			<point x="353" y="650"/>
			<point x="324" y="650" type="curve" smooth="yes"/>
			<point x="191" y="650" type="line"/>
		</contour>
	</outline>
</glyph>
<glyph name="backslash" format="2">
  <advance width="403"/>
  <unicode hex="005C"/>
  <outline>
    <contour>
      <point x="296" y="0" type="curve" smooth="yes"/>
      <point x="328" y="0"/>
      <point x="352" y="25"/>
      <point x="344" y="64" type="curve" smooth="yes"/>
      <point x="219" y="608" type="line" smooth="yes"/>
      <point x="212" y="632"/>
      <point x="201" y="650"/>
      <point x="170" y="650" type="curve" smooth="yes"/>
      <point x="138" y="650"/>
      <point x="114" y="625"/>
      <point x="122" y="586" type="curve" smooth="yes"/>
      <point x="247" y="42" type="line" smooth="yes"/>
      <point x="254" y="18"/>
      <point x="265" y="0"/>
    </contour>
  </outline>
</glyph>
<glyph name="bracketright" format="2">
	<advance width="293"/>
	<unicode hex="005D"/>
	<outline>
		<contour>
			<point x="61" y="-247" type="line" smooth="yes"/>
			<point x="51" y="-286"/>
			<point x="75" y="-298"/>
			<point x="102" y="-300" type="curve" smooth="yes"/>
			<point x="132" y="-302"/>
			<point x="153" y="-290"/>
			<point x="160" y="-263" type="curve" smooth="yes"/>
			<point x="374" y="598" type="line" smooth="yes"/>
			<point x="381" y="625"/>
			<point x="363" y="650"/>
			<point x="329" y="650" type="curve" smooth="yes"/>
			<point x="296" y="650"/>
			<point x="279" y="631"/>
			<point x="274" y="609" type="curve" smooth="yes"/>
		</contour>
		<contour>
			<point x="330" y="650" type="line"/>
			<point x="185" y="650" type="line" smooth="yes"/>
			<point x="155" y="650"/>
			<point x="138" y="634"/>
			<point x="133" y="608" type="curve" smooth="yes"/>
			<point x="128" y="580"/>
			<point x="154" y="565"/>
			<point x="185" y="565" type="curve" smooth="yes"/>
			<point x="273" y="565" type="line"/>
		</contour>
		<contour>
			<point x="113" y="-215" type="line"/>
			<point x="-30" y="-215" type="line" smooth="yes"/>
			<point x="-58" y="-215"/>
			<point x="-77" y="-232"/>
			<point x="-81" y="-255" type="curve" smooth="yes"/>
			<point x="-86" y="-283"/>
			<point x="-59" y="-300"/>
			<point x="-30" y="-300" type="curve" smooth="yes"/>
			<point x="103" y="-300" type="line"/>
		</contour>
	</outline>
</glyph>
<glyph name="asciicircum" format="2">
	<advance width="381"/>
	<unicode hex="005E"/>
	<outline>
		<contour>
			<point x="324" y="569" type="line" smooth="yes"/>
			<point x="350" y="590"/>
			<point x="348" y="617"/>
			<point x="330" y="635" type="curve" smooth="yes"/>
			<point x="313" y="653"/>
			<point x="279" y="657"/>
			<point x="256" y="638" type="curve" smooth="yes"/>
			<point x="123" y="527" type="line" smooth="yes"/>
			<point x="99" y="507"/>
			<point x="103" y="481"/>
			<point x="116" y="464" type="curve" smooth="yes"/>
			<point x="134" y="442"/>
			<point x="169" y="439"/>
			<point x="193" y="459" type="curve" smooth="yes"/>
		</contour>
		<contour>
			<point x="330" y="635" type="line"/>
			<point x="255" y="573" type="line"/>
			<point x="347" y="464" type="line" smooth="yes"/>
			<point x="366" y="441"/>
			<point x="401" y="443"/>
			<point x="419" y="460" type="curve" smooth="yes"/>
			<point x="438" y="477"/>
			<point x="442" y="502"/>
			<point x="423" y="525" type="curve" smooth="yes"/>
		</contour>
	</outline>
</glyph>
<glyph name="underscore" format="2">
	<advance width="456"/>
	<unicode hex="005F"/>
	<outline>
		<contour>
			<point x="280" y="-99" type="line" smooth="yes"/>
			<point x="311" y="-99"/>
			<point x="332" y="-79"/>
			<point x="332" y="-54" type="curve" smooth="yes"/>
			<point x="332" y="-30"/>
			<point x="311" y="-10"/>
			<point x="280" y="-10" type="curve" smooth="yes"/>
			<point x="-9" y="-10" type="line" smooth="yes"/>
			<point x="-41" y="-10"/>
			<point x="-61" y="-30"/>
			<point x="-61" y="-55" type="curve" smooth="yes"/>
			<point x="-61" y="-79"/>
			<point x="-39" y="-99"/>
			<point x="-9" y="-99" type="curve" smooth="yes"/>
		</contour>
	</outline>
</glyph>
<glyph name="grave" format="2">
  <advance width="500"/>
  <unicode hex="0060"/>
  <outline>
    <contour>
      <point x="303" y="468" type="line" smooth="yes"/>
      <point x="319" y="442"/>
      <point x="342" y="448"/>
      <point x="355" y="455" type="curve" smooth="yes"/>
      <point x="367" y="461"/>
      <point x="393" y="479"/>
      <point x="379" y="506" type="curve" smooth="yes"/>
      <point x="330" y="602" type="line" smooth="yes"/>
      <point x="321" y="620"/>
      <point x="305.0" y="628.0"/>
      <point x="290" y="628" type="curve" smooth="yes"/>
      <point x="264" y="628"/>
      <point x="224" y="598"/>
      <point x="246" y="562" type="curve" smooth="yes"/>
    </contour>
  </outline>
</glyph>
<glyph name="a" format="2">
  <advance width="363"/>
  <unicode hex="0061"/>
  <outline>
    <contour>
      <point x="133" y="0" type="curve" smooth="yes"/>
      <point x="199" y="0"/>
      <point x="230" y="75"/>
      <point x="258" y="180" type="curve" smooth="yes"/>
      <point x="287" y="288"/>
      <point x="291" y="359"/>
      <point x="222" y="359" type="curve" smooth="yes"/>
      <point x="145" y="359"/>
      <point x="73" y="292"/>
      <point x="46" y="184" type="curve" smooth="yes"/>
      <point x="18" y="70"/>
      <point x="53" y="0"/>
    </contour>
    <contour>
      <point x="154" y="90" type="curve" smooth="yes"/>
      <point x="133" y="90"/>
      <point x="127" y="118"/>
      <point x="139" y="164" type="curve" smooth="yes"/>
      <point x="155" y="229"/>
      <point x="186" y="269"/>
      <point x="220" y="269" type="curve" smooth="yes"/>
      <point x="240" y="269"/>
      <point x="246" y="243"/>
      <point x="235" y="200" type="curve" smooth="yes"/>
      <point x="218" y="132"/>
      <point x="187" y="90"/>
    </contour>
    <contour>
      <point x="241" y="0" type="curve" smooth="yes"/>
      <point x="278" y="0"/>
      <point x="287" y="17"/>
      <point x="294" y="46" type="curve" smooth="yes"/>
      <point x="358" y="303" type="line" smooth="yes"/>
      <point x="367" y="340"/>
      <point x="352" y="359"/>
      <point x="319" y="359" type="curve" smooth="yes"/>
      <point x="288" y="359"/>
      <point x="272" y="347"/>
      <point x="265" y="319" type="curve" smooth="yes"/>
      <point x="201" y="62" type="line" smooth="yes"/>
      <point x="191" y="23"/>
      <point x="204" y="0"/>
    </contour>
  </outline>
</glyph>
<glyph name="b" format="2">
  <advance width="374"/>
  <unicode hex="0062"/>
  <outline>
    <contour>
      <point x="69" y="0" type="curve" smooth="yes"/>
      <point x="109" y="0"/>
      <point x="119" y="20"/>
      <point x="126" y="51" type="curve" smooth="yes"/>
      <point x="261" y="590" type="line" smooth="yes"/>
      <point x="271" y="630"/>
      <point x="254" y="650"/>
      <point x="219" y="650" type="curve" smooth="yes"/>
      <point x="187" y="650"/>
      <point x="170" y="637"/>
      <point x="162" y="607" type="curve" smooth="yes"/>
      <point x="26" y="66" type="line" smooth="yes"/>
      <point x="16" y="25"/>
      <point x="29" y="0"/>
    </contour>
    <contour>
      <point x="180" y="0" type="curve" smooth="yes"/>
      <point x="245" y="0"/>
      <point x="317" y="69"/>
      <point x="345" y="180" type="curve" smooth="yes"/>
      <point x="372" y="291"/>
      <point x="337" y="359"/>
      <point x="271" y="359" type="curve" smooth="yes"/>
      <point x="184" y="359"/>
      <point x="159" y="291"/>
      <point x="133" y="184" type="curve" smooth="yes"/>
      <point x="103" y="63"/>
      <point x="102" y="0"/>
    </contour>
    <contour>
      <point x="171" y="90" type="curve" smooth="yes"/>
      <point x="150" y="90"/>
      <point x="144" y="118"/>
      <point x="156" y="164" type="curve" smooth="yes"/>
      <point x="172" y="229"/>
      <point x="203" y="269"/>
      <point x="237" y="269" type="curve" smooth="yes"/>
      <point x="257" y="269"/>
      <point x="263" y="243"/>
      <point x="252" y="200" type="curve" smooth="yes"/>
      <point x="235" y="132"/>
      <point x="204" y="90"/>
    </contour>
  </outline>
</glyph>
<glyph name="c" format="2">
	<advance width="315"/>
	<unicode hex="0063"/>
	<outline>
		<contour>
			<point x="104" y="-1" type="curve" smooth="yes"/>
			<point x="187" y="-1"/>
			<point x="249" y="40"/>
			<point x="275" y="90" type="curve" smooth="yes"/>
			<point x="288" y="116"/>
			<point x="279" y="140"/>
			<point x="250" y="150" type="curve" smooth="yes"/>
			<point x="222" y="160"/>
			<point x="200" y="153"/>
			<point x="191" y="131" type="curve" smooth="yes"/>
			<point x="181" y="105"/>
			<point x="149" y="89"/>
			<point x="125" y="89" type="curve" smooth="yes"/>
			<point x="101" y="89"/>
			<point x="96" y="129"/>
			<point x="104" y="178" type="curve" smooth="yes"/>
			<point x="112" y="216"/>
			<point x="138" y="264"/>
			<point x="181" y="264" type="curve" smooth="yes"/>
			<point x="189" y="264"/>
			<point x="195" y="261"/>
			<point x="199" y="256" type="curve" smooth="yes"/>
			<point x="211" y="243"/>
			<point x="233" y="230"/>
			<point x="262" y="242" type="curve" smooth="yes"/>
			<point x="289" y="253"/>
			<point x="299" y="275"/>
			<point x="293" y="292" type="curve" smooth="yes"/>
			<point x="280" y="328"/>
			<point x="251" y="354"/>
			<point x="203" y="354" type="curve" smooth="yes"/>
			<point x="88" y="354"/>
			<point x="21" y="265"/>
			<point x="3" y="164" type="curve" smooth="yes"/>
			<point x="-10" y="88"/>
			<point x="30" y="-1"/>
		</contour>
	</outline>
</glyph>
<glyph name="d" format="2">
  <advance width="465"/>
  <unicode hex="0064"/>
  <outline>
    <contour>
      <point x="287" y="0" type="curve" smooth="yes"/>
      <point x="326" y="0"/>
      <point x="372" y="29"/>
      <point x="416" y="86" type="curve" smooth="yes"/>
      <point x="433" y="109"/>
      <point x="438" y="126"/>
      <point x="438" y="143" type="curve" smooth="yes"/>
      <point x="438" y="164"/>
      <point x="424" y="181"/>
      <point x="403" y="181" type="curve" smooth="yes"/>
      <point x="381" y="181"/>
      <point x="367" y="167"/>
      <point x="354" y="141" type="curve" smooth="yes"/>
      <point x="341" y="115"/>
      <point x="318" y="87"/>
      <point x="312" y="87" type="curve" smooth="yes"/>
      <point x="304" y="87"/>
      <point x="309" y="115"/>
      <point x="313" y="130" type="curve" smooth="yes"/>
      <point x="429" y="596" type="line" smooth="yes"/>
      <point x="438" y="632"/>
      <point x="423" y="650"/>
      <point x="391" y="650" type="curve" smooth="yes"/>
      <point x="361" y="650"/>
      <point x="345" y="639"/>
      <point x="338" y="611" type="curve" smooth="yes"/>
      <point x="223" y="151" type="line" smooth="yes"/>
      <point x="193" y="32"/>
      <point x="235" y="0"/>
    </contour>
    <contour>
      <point x="133" y="0" type="curve" smooth="yes"/>
      <point x="199" y="0"/>
      <point x="230" y="75"/>
      <point x="258" y="180" type="curve" smooth="yes"/>
      <point x="287" y="288"/>
      <point x="291" y="359"/>
      <point x="222" y="359" type="curve" smooth="yes"/>
      <point x="145" y="359"/>
      <point x="73" y="292"/>
      <point x="46" y="184" type="curve" smooth="yes"/>
      <point x="18" y="70"/>
      <point x="53" y="0"/>
    </contour>
    <contour>
      <point x="154" y="90" type="curve" smooth="yes"/>
      <point x="133" y="90"/>
      <point x="127" y="118"/>
      <point x="139" y="164" type="curve" smooth="yes"/>
      <point x="155" y="229"/>
      <point x="186" y="269"/>
      <point x="220" y="269" type="curve" smooth="yes"/>
      <point x="240" y="269"/>
      <point x="246" y="243"/>
      <point x="235" y="200" type="curve" smooth="yes"/>
      <point x="218" y="132"/>
      <point x="187" y="90"/>
    </contour>
  </outline>
</glyph>
<glyph name="e" format="2">
	<advance width="344"/>
	<unicode hex="0065"/>
	<outline>
		<contour>
			<point x="104" y="-1" type="curve" smooth="yes"/>
			<point x="196" y="-1"/>
			<point x="251" y="44"/>
			<point x="276" y="94" type="curve" smooth="yes"/>
			<point x="286" y="114"/>
			<point x="281" y="139"/>
			<point x="252" y="149" type="curve" smooth="yes"/>
			<point x="224" y="159"/>
			<point x="205" y="147"/>
			<point x="197" y="130" type="curve" smooth="yes"/>
			<point x="185" y="105"/>
			<point x="158" y="85"/>
			<point x="125" y="85" type="curve" smooth="yes"/>
			<point x="101" y="85"/>
			<point x="92" y="129"/>
			<point x="100" y="178" type="curve" smooth="yes"/>
			<point x="108" y="216"/>
			<point x="138" y="270"/>
			<point x="181" y="270" type="curve" smooth="yes"/>
			<point x="188" y="270"/>
			<point x="195" y="263"/>
			<point x="197" y="258" type="curve" smooth="yes"/>
			<point x="199" y="254"/>
			<point x="175" y="234"/>
			<point x="140" y="217" type="curve"/>
			<point x="60" y="173" type="line"/>
			<point x="44" y="97" type="line"/>
			<point x="176" y="156" type="line"/>
			<point x="211" y="176"/>
			<point x="282" y="222"/>
			<point x="294" y="275" type="curve" smooth="yes"/>
			<point x="298" y="299"/>
			<point x="271" y="354"/>
			<point x="203" y="354" type="curve" smooth="yes"/>
			<point x="88" y="354"/>
			<point x="21" y="265"/>
			<point x="3" y="164" type="curve" smooth="yes"/>
			<point x="-10" y="88"/>
			<point x="30" y="-1"/>
		</contour>
	</outline>
</glyph>
<glyph name="f" format="2">
  <advance width="298"/>
  <unicode hex="0066"/>
  <outline>
    <contour>
      <point x="89" y="263" type="curve" smooth="yes"/>
      <point x="263" y="263" type="line" smooth="yes"/>
      <point x="306" y="263"/>
      <point x="315" y="288"/>
      <point x="315" y="312" type="curve" smooth="yes"/>
      <point x="315" y="335"/>
      <point x="307" y="359"/>
      <point x="263" y="359" type="curve" smooth="yes"/>
      <point x="89" y="359" type="line" smooth="yes"/>
      <point x="45" y="359"/>
      <point x="37" y="335"/>
      <point x="37" y="312" type="curve" smooth="yes"/>
      <point x="37" y="288"/>
      <point x="47" y="263"/>
    </contour>
    <contour>
      <point x="85" y="0" type="curve" smooth="yes"/>
      <point x="120" y="0"/>
      <point x="134" y="17"/>
      <point x="142" y="50" type="curve" smooth="yes"/>
      <point x="252" y="491" type="line" smooth="yes"/>
      <point x="258" y="517"/>
      <point x="263" y="544"/>
      <point x="269" y="544" type="curve" smooth="yes"/>
      <point x="275" y="544"/>
      <point x="278" y="535"/>
      <point x="280" y="530" type="curve" smooth="yes"/>
      <point x="292" y="498"/>
      <point x="319" y="489"/>
      <point x="347" y="501" type="curve" smooth="yes"/>
      <point x="374" y="513"/>
      <point x="385" y="536"/>
      <point x="375" y="565" type="curve" smooth="yes"/>
      <point x="354" y="625"/>
      <point x="319" y="650"/>
      <point x="279" y="650" type="curve" smooth="yes"/>
      <point x="224" y="650"/>
      <point x="178" y="612"/>
      <point x="154" y="514" type="curve" smooth="yes"/>
      <point x="43" y="69" type="line" smooth="yes"/>
      <point x="33" y="29"/>
      <point x="46" y="0"/>
    </contour>
  </outline>
</glyph>
<glyph name="g" format="2">
	<advance width="405"/>
	<unicode hex="0067"/>
	<outline>
		<contour>
			<point x="58" y="-300" type="curve" smooth="yes"/>
			<point x="101" y="-300"/>
			<point x="151" y="-291"/>
			<point x="179" y="-269" type="curve" smooth="yes"/>
			<point x="237" y="-225"/>
			<point x="263" y="-131"/>
			<point x="279" y="-65" type="curve" smooth="yes"/>
			<point x="370" y="302" type="line" smooth="yes"/>
			<point x="376" y="327"/>
			<point x="354" y="348"/>
			<point x="325" y="350" type="curve" smooth="yes"/>
			<point x="301" y="352"/>
			<point x="275" y="337"/>
			<point x="270" y="316" type="curve" smooth="yes"/>
			<point x="180" y="-50" type="line" smooth="yes"/>
			<point x="170" y="-92"/>
			<point x="142" y="-178"/>
			<point x="123" y="-193" type="curve" smooth="yes"/>
			<point x="104" y="-207"/>
			<point x="81" y="-210"/>
			<point x="64" y="-210" type="curve" smooth="yes"/>
			<point x="47" y="-210"/>
			<point x="35" y="-208"/>
			<point x="21" y="-197" type="curve" smooth="yes"/>
			<point x="8" y="-186"/>
			<point x="-20" y="-183"/>
			<point x="-38" y="-199" type="curve" smooth="yes"/>
			<point x="-60" y="-219"/>
			<point x="-62" y="-245"/>
			<point x="-39" y="-264" type="curve" smooth="yes"/>
			<point x="-21" y="-280"/>
			<point x="13" y="-300"/>
		</contour>
		<contour>
			<point x="105" y="-1" type="curve" smooth="yes"/>
			<point x="214" y="-1"/>
			<point x="275" y="91"/>
			<point x="296" y="170" type="curve" smooth="yes"/>
			<point x="316" y="248"/>
			<point x="301" y="354"/>
			<point x="204" y="354" type="curve" smooth="yes"/>
			<point x="89" y="354"/>
			<point x="21" y="265"/>
			<point x="3" y="164" type="curve" smooth="yes"/>
			<point x="-10" y="88"/>
			<point x="31" y="-1"/>
		</contour>
		<contour>
			<point x="136" y="89" type="curve" smooth="yes"/>
			<point x="102" y="89"/>
			<point x="97" y="129"/>
			<point x="105" y="178" type="curve" smooth="yes"/>
			<point x="113" y="216"/>
			<point x="139" y="264"/>
			<point x="182" y="264" type="curve" smooth="yes"/>
			<point x="228" y="264"/>
			<point x="236" y="217"/>
			<point x="226" y="183" type="curve" smooth="yes"/>
			<point x="213" y="138"/>
			<point x="184" y="89"/>
		</contour>
	</outline>
</glyph>
<glyph name="h" format="2">
  <advance width="363"/>
  <unicode hex="0068"/>
  <outline>
    <contour>
      <point x="244" y="0" type="curve" smooth="yes"/>
      <point x="279" y="0"/>
      <point x="287" y="18"/>
      <point x="294" y="46" type="curve" smooth="yes"/>
      <point x="328" y="184" type="line" smooth="yes"/>
      <point x="368" y="345"/>
      <point x="328" y="359"/>
      <point x="285" y="359" type="curve" smooth="yes"/>
      <point x="230" y="359"/>
      <point x="157" y="296"/>
      <point x="111" y="217" type="curve"/>
      <point x="112" y="64" type="line"/>
      <point x="142" y="163"/>
      <point x="207" y="266"/>
      <point x="236" y="266" type="curve" smooth="yes"/>
      <point x="253" y="266"/>
      <point x="243" y="219"/>
      <point x="239" y="201" type="curve" smooth="yes"/>
      <point x="205" y="61" type="line" smooth="yes"/>
      <point x="196" y="25"/>
      <point x="205" y="0"/>
    </contour>
    <contour>
      <point x="55" y="0" type="curve" smooth="yes"/>
      <point x="91" y="0"/>
      <point x="101" y="18"/>
      <point x="108" y="46" type="curve" smooth="yes"/>
      <point x="245" y="592" type="line" smooth="yes"/>
      <point x="254" y="629"/>
      <point x="241" y="650"/>
      <point x="209" y="650" type="curve" smooth="yes"/>
      <point x="177" y="650"/>
      <point x="160" y="640"/>
      <point x="152" y="607" type="curve" smooth="yes"/>
      <point x="16" y="64" type="line" smooth="yes"/>
      <point x="6" y="25"/>
      <point x="19" y="0"/>
    </contour>
  </outline>
</glyph>
<glyph name="i" format="2">
	<advance width="166"/>
	<unicode hex="0069"/>
	<outline>
		<contour>
			<point x="120" y="422" type="curve" smooth="yes"/>
			<point x="147" y="422"/>
			<point x="172" y="443"/>
			<point x="172" y="470" type="curve" smooth="yes"/>
			<point x="172" y="499"/>
			<point x="143" y="516"/>
			<point x="120" y="516" type="curve" smooth="yes"/>
			<point x="92" y="516"/>
			<point x="70" y="495"/>
			<point x="70" y="470" type="curve" smooth="yes"/>
			<point x="70" y="443"/>
			<point x="93" y="422"/>
		</contour>
		<contour>
			<point x="127" y="297" type="line" smooth="yes"/>
			<point x="136" y="333"/>
			<point x="112" y="348"/>
			<point x="88" y="350" type="curve" smooth="yes"/>
			<point x="61" y="352"/>
			<point x="36" y="340"/>
			<point x="29" y="311" type="curve" smooth="yes"/>
			<point x="-33" y="59" type="line" smooth="yes"/>
			<point x="-41" y="27"/>
			<point x="-26" y="3"/>
			<point x="7" y="0" type="curve" smooth="yes"/>
			<point x="46" y="-2"/>
			<point x="59" y="24"/>
			<point x="64" y="44" type="curve" smooth="yes"/>
		</contour>
	</outline>
</glyph>
<glyph name="j" format="2">
	<advance width="85"/>
	<unicode hex="006A"/>
	<outline>
		<contour>
			<point x="40" y="419" type="curve" smooth="yes"/>
			<point x="67" y="419"/>
			<point x="91" y="440"/>
			<point x="91" y="468" type="curve" smooth="yes"/>
			<point x="91" y="496"/>
			<point x="67" y="515"/>
			<point x="40" y="515" type="curve" smooth="yes"/>
			<point x="13" y="515"/>
			<point x="-11" y="496"/>
			<point x="-11" y="468" type="curve" smooth="yes"/>
			<point x="-11" y="440"/>
			<point x="13" y="419"/>
		</contour>
		<contour>
			<point x="-262" y="-300" type="curve" smooth="yes"/>
			<point x="-219" y="-300"/>
			<point x="-169" y="-291"/>
			<point x="-141" y="-269" type="curve" smooth="yes"/>
			<point x="-83" y="-225"/>
			<point x="-57" y="-131"/>
			<point x="-41" y="-65" type="curve" smooth="yes"/>
			<point x="50" y="302" type="line" smooth="yes"/>
			<point x="56" y="327"/>
			<point x="34" y="350"/>
			<point x="5" y="350" type="curve" smooth="yes"/>
			<point x="-19" y="350"/>
			<point x="-45" y="337"/>
			<point x="-50" y="316" type="curve" smooth="yes"/>
			<point x="-140" y="-50" type="line" smooth="yes"/>
			<point x="-150" y="-92"/>
			<point x="-178" y="-178"/>
			<point x="-197" y="-193" type="curve" smooth="yes"/>
			<point x="-216" y="-207"/>
			<point x="-239" y="-210"/>
			<point x="-256" y="-210" type="curve" smooth="yes"/>
			<point x="-273" y="-210"/>
			<point x="-285" y="-208"/>
			<point x="-299" y="-197" type="curve" smooth="yes"/>
			<point x="-312" y="-186"/>
			<point x="-340" y="-183"/>
			<point x="-358" y="-199" type="curve" smooth="yes"/>
			<point x="-380" y="-219"/>
			<point x="-382" y="-245"/>
			<point x="-359" y="-264" type="curve" smooth="yes"/>
			<point x="-341" y="-280"/>
			<point x="-307" y="-300"/>
		</contour>
	</outline>
</glyph>
<glyph name="k" format="2">
  <advance width="365"/>
  <unicode hex="006B"/>
  <outline>
    <contour>
      <point x="59" y="0" type="curve" smooth="yes"/>
      <point x="99" y="0"/>
      <point x="109" y="20"/>
      <point x="116" y="51" type="curve" smooth="yes"/>
      <point x="251" y="590" type="line" smooth="yes"/>
      <point x="261" y="628"/>
      <point x="246" y="648"/>
      <point x="211" y="650" type="curve" smooth="yes"/>
      <point x="178" y="652"/>
      <point x="160" y="638"/>
      <point x="152" y="607" type="curve" smooth="yes"/>
      <point x="16" y="66" type="line" smooth="yes"/>
      <point x="6" y="25"/>
      <point x="19" y="0"/>
    </contour>
    <contour>
      <point x="261" y="0" type="curve" smooth="yes"/>
      <point x="306" y="0"/>
      <point x="334" y="38"/>
      <point x="304" y="82" type="curve" smooth="yes"/>
      <point x="135" y="328" type="line"/>
      <point x="100" y="202" type="line"/>
      <point x="224" y="19" type="line" smooth="yes"/>
      <point x="234" y="5"/>
      <point x="248" y="0"/>
    </contour>
    <contour>
      <point x="182" y="159" type="curve" smooth="yes"/>
      <point x="288" y="159"/>
      <point x="357" y="213"/>
      <point x="357" y="289" type="curve" smooth="yes"/>
      <point x="357" y="333"/>
      <point x="330" y="359"/>
      <point x="288" y="359" type="curve" smooth="yes"/>
      <point x="187" y="359"/>
      <point x="121" y="278"/>
      <point x="121" y="230" type="curve" smooth="yes"/>
      <point x="121" y="188"/>
      <point x="154" y="159"/>
    </contour>
    <contour>
      <point x="214" y="226" type="curve" smooth="yes"/>
      <point x="205" y="226"/>
      <point x="199" y="232"/>
      <point x="199" y="240" type="curve" smooth="yes"/>
      <point x="199" y="259"/>
      <point x="233" y="280"/>
      <point x="254" y="280" type="curve" smooth="yes"/>
      <point x="263" y="280"/>
      <point x="269" y="275"/>
      <point x="269" y="267" type="curve" smooth="yes"/>
      <point x="269" y="248"/>
      <point x="235" y="226"/>
    </contour>
  </outline>
</glyph>
<glyph name="l" format="2">
	<advance width="164"/>
	<unicode hex="006C"/>
	<outline>
		<contour>
			<point x="202" y="597" type="line" smooth="yes"/>
			<point x="211" y="633"/>
			<point x="187" y="648"/>
			<point x="163" y="650" type="curve" smooth="yes"/>
			<point x="136" y="652"/>
			<point x="111" y="640"/>
			<point x="104" y="611" type="curve" smooth="yes"/>
			<point x="-32" y="59" type="line" smooth="yes"/>
			<point x="-40" y="27"/>
			<point x="-25" y="3"/>
			<point x="8" y="0" type="curve" smooth="yes"/>
			<point x="47" y="-2"/>
			<point x="60" y="24"/>
			<point x="65" y="44" type="curve" smooth="yes"/>
		</contour>
	</outline>
</glyph>
<glyph name="m" format="2">
	<advance width="614"/>
	<unicode hex="006D"/>
	<outline>
		<contour>
			<point x="228" y="0" type="curve" smooth="yes"/>
			<point x="253" y="0"/>
			<point x="282" y="14"/>
			<point x="289" y="43" type="curve" smooth="yes"/>
			<point x="325" y="184" type="line" smooth="yes"/>
			<point x="345" y="264"/>
			<point x="325" y="354"/>
			<point x="232" y="354" type="curve" smooth="yes"/>
			<point x="178" y="354"/>
			<point x="139" y="322"/>
			<point x="107" y="285" type="curve"/>
			<point x="67" y="99" type="line"/>
			<point x="113" y="164"/>
			<point x="188" y="264"/>
			<point x="217" y="264" type="curve" smooth="yes"/>
			<point x="241" y="264"/>
			<point x="233" y="230"/>
			<point x="223" y="189" type="curve" smooth="yes"/>
			<point x="187" y="46" type="line" smooth="yes"/>
			<point x="180" y="18"/>
			<point x="206" y="0"/>
		</contour>
		<contour>
			<point x="7" y="0" type="curve" smooth="yes"/>
			<point x="46" y="0"/>
			<point x="59" y="24"/>
			<point x="64" y="44" type="curve" smooth="yes"/>
			<point x="127" y="297" type="line" smooth="yes"/>
			<point x="136" y="333"/>
			<point x="112" y="350"/>
			<point x="88" y="350" type="curve" smooth="yes"/>
			<point x="61" y="350"/>
			<point x="36" y="340"/>
			<point x="29" y="311" type="curve" smooth="yes"/>
			<point x="-33" y="59" type="line" smooth="yes"/>
			<point x="-41" y="27"/>
			<point x="-26" y="0"/>
		</contour>
		<contour>
			<point x="453" y="0" type="curve" smooth="yes"/>
			<point x="478" y="0"/>
			<point x="507" y="14"/>
			<point x="514" y="43" type="curve" smooth="yes"/>
			<point x="550" y="184" type="line" smooth="yes"/>
			<point x="570" y="264"/>
			<point x="550" y="354"/>
			<point x="457" y="354" type="curve" smooth="yes"/>
			<point x="403" y="354"/>
			<point x="354" y="312"/>
			<point x="322" y="275" type="curve"/>
			<point x="292" y="99" type="line"/>
			<point x="338" y="164"/>
			<point x="413" y="264"/>
			<point x="442" y="264" type="curve" smooth="yes"/>
			<point x="466" y="264"/>
			<point x="458" y="230"/>
			<point x="448" y="189" type="curve" smooth="yes"/>
			<point x="412" y="46" type="line" smooth="yes"/>
			<point x="405" y="18"/>
			<point x="431" y="0"/>
		</contour>
	</outline>
</glyph>
<glyph name="n" format="2">
	<advance width="389"/>
	<unicode hex="006E"/>
	<outline>
		<contour>
			<point x="67" y="99" type="line"/>
			<point x="113" y="164"/>
			<point x="188" y="264"/>
			<point x="217" y="264" type="curve" smooth="yes"/>
			<point x="241" y="264"/>
			<point x="233" y="230"/>
			<point x="223" y="189" type="curve" smooth="yes"/>
			<point x="187" y="46" type="line" smooth="yes"/>
			<point x="180" y="18"/>
			<point x="206" y="0"/>
			<point x="228" y="0" type="curve" smooth="yes"/>
			<point x="253" y="0"/>
			<point x="282" y="14"/>
			<point x="289" y="43" type="curve" smooth="yes"/>
			<point x="325" y="184" type="line" smooth="yes"/>
			<point x="345" y="264"/>
			<point x="325" y="354"/>
			<point x="232" y="354" type="curve" smooth="yes"/>
			<point x="178" y="354"/>
			<point x="139" y="322"/>
			<point x="107" y="285" type="curve"/>
		</contour>
		<contour>
			<point x="127" y="297" type="line" smooth="yes"/>
			<point x="136" y="333"/>
			<point x="112" y="348"/>
			<point x="88" y="350" type="curve" smooth="yes"/>
			<point x="61" y="352"/>
			<point x="36" y="340"/>
			<point x="29" y="311" type="curve" smooth="yes"/>
			<point x="-33" y="59" type="line" smooth="yes"/>
			<point x="-41" y="27"/>
			<point x="-26" y="3"/>
			<point x="7" y="0" type="curve" smooth="yes"/>
			<point x="46" y="-2"/>
			<point x="59" y="24"/>
			<point x="64" y="44" type="curve" smooth="yes"/>
		</contour>
	</outline>
</glyph>
<glyph name="o" format="2">
	<advance width="343"/>
	<unicode hex="006F"/>
	<outline>
		<contour>
			<point x="104" y="-1" type="curve" smooth="yes"/>
			<point x="213" y="-1"/>
			<point x="274" y="91"/>
			<point x="295" y="170" type="curve" smooth="yes"/>
			<point x="315" y="248"/>
			<point x="300" y="354"/>
			<point x="203" y="354" type="curve" smooth="yes"/>
			<point x="88" y="354"/>
			<point x="21" y="265"/>
			<point x="3" y="164" type="curve" smooth="yes"/>
			<point x="-10" y="88"/>
			<point x="30" y="-1"/>
		</contour>
		<contour>
			<point x="125" y="89" type="curve" smooth="yes"/>
			<point x="101" y="89"/>
			<point x="96" y="129"/>
			<point x="104" y="178" type="curve" smooth="yes"/>
			<point x="112" y="216"/>
			<point x="138" y="264"/>
			<point x="181" y="264" type="curve" smooth="yes"/>
			<point x="213" y="264"/>
			<point x="206" y="217"/>
			<point x="196" y="183" type="curve" smooth="yes"/>
			<point x="183" y="138"/>
			<point x="157" y="89"/>
		</contour>
	</outline>
</glyph>
<glyph name="p" format="2">
	<advance width="373"/>
	<unicode hex="0070"/>
	<outline>
		<contour>
			<point x="127" y="297" type="line" smooth="yes"/>
			<point x="136" y="333"/>
			<point x="112" y="348"/>
			<point x="88" y="350" type="curve" smooth="yes"/>
			<point x="61" y="352"/>
			<point x="36" y="340"/>
			<point x="29" y="311" type="curve" smooth="yes"/>
			<point x="-108" y="-241" type="line" smooth="yes"/>
			<point x="-116" y="-273"/>
			<point x="-101" y="-297"/>
			<point x="-68" y="-300" type="curve" smooth="yes"/>
			<point x="-29" y="-302"/>
			<point x="-16" y="-276"/>
			<point x="-11" y="-256" type="curve" smooth="yes"/>
		</contour>
		<contour>
			<point x="233" y="354" type="curve" smooth="yes"/>
			<point x="118" y="354"/>
			<point x="51" y="265"/>
			<point x="33" y="164" type="curve" smooth="yes"/>
			<point x="20" y="88"/>
			<point x="60" y="-1"/>
			<point x="134" y="-1" type="curve" smooth="yes"/>
			<point x="243" y="-1"/>
			<point x="304" y="91"/>
			<point x="325" y="170" type="curve" smooth="yes"/>
			<point x="345" y="248"/>
			<point x="330" y="354"/>
		</contour>
		<contour>
			<point x="211" y="264" type="curve" smooth="yes"/>
			<point x="243" y="264"/>
			<point x="236" y="217"/>
			<point x="226" y="183" type="curve" smooth="yes"/>
			<point x="213" y="138"/>
			<point x="187" y="89"/>
			<point x="155" y="89" type="curve" smooth="yes"/>
			<point x="105" y="89"/>
			<point x="105" y="129"/>
			<point x="113" y="178" type="curve" smooth="yes"/>
			<point x="121" y="216"/>
			<point x="148" y="264"/>
		</contour>
	</outline>
</glyph>
<glyph name="q" format="2">
  <advance width="381"/>
  <unicode hex="0071"/>
  <outline>
    <contour>
      <point x="212" y="-300" type="curve" smooth="yes"/>
      <point x="251" y="-300"/>
      <point x="297" y="-271"/>
      <point x="341" y="-214" type="curve" smooth="yes"/>
      <point x="358" y="-191"/>
      <point x="363" y="-174"/>
      <point x="363" y="-157" type="curve" smooth="yes"/>
      <point x="363" y="-136"/>
      <point x="349" y="-119"/>
      <point x="328" y="-119" type="curve" smooth="yes"/>
      <point x="306" y="-119"/>
      <point x="292" y="-133"/>
      <point x="279" y="-159" type="curve" smooth="yes"/>
      <point x="266" y="-185"/>
      <point x="243" y="-213"/>
      <point x="237" y="-213" type="curve" smooth="yes"/>
      <point x="229" y="-213"/>
      <point x="234" y="-185"/>
      <point x="238" y="-170" type="curve" smooth="yes"/>
      <point x="356" y="305" type="line" smooth="yes"/>
      <point x="365" y="341"/>
      <point x="350" y="359"/>
      <point x="318" y="359" type="curve" smooth="yes"/>
      <point x="288" y="359"/>
      <point x="272" y="348"/>
      <point x="265" y="320" type="curve" smooth="yes"/>
      <point x="148" y="-149" type="line" smooth="yes"/>
      <point x="118" y="-268"/>
      <point x="160" y="-300"/>
    </contour>
    <contour>
      <point x="133" y="0" type="curve" smooth="yes"/>
      <point x="199" y="0"/>
      <point x="230" y="75"/>
      <point x="258" y="180" type="curve" smooth="yes"/>
      <point x="287" y="288"/>
      <point x="291" y="359"/>
      <point x="222" y="359" type="curve" smooth="yes"/>
      <point x="145" y="359"/>
      <point x="73" y="292"/>
      <point x="46" y="184" type="curve" smooth="yes"/>
      <point x="18" y="70"/>
      <point x="53" y="0"/>
    </contour>
    <contour>
      <point x="154" y="90" type="curve" smooth="yes"/>
      <point x="133" y="90"/>
      <point x="127" y="118"/>
      <point x="139" y="164" type="curve" smooth="yes"/>
      <point x="155" y="229"/>
      <point x="186" y="269"/>
      <point x="220" y="269" type="curve" smooth="yes"/>
      <point x="240" y="269"/>
      <point x="246" y="243"/>
      <point x="235" y="200" type="curve" smooth="yes"/>
      <point x="218" y="132"/>
      <point x="187" y="90"/>
    </contour>
  </outline>
</glyph>
<glyph name="r" format="2">
	<advance width="331"/>
	<unicode hex="0072"/>
	<outline>
		<contour>
			<point x="67" y="99" type="line"/>
			<point x="113" y="164"/>
			<point x="188" y="266"/>
			<point x="212" y="266" type="curve" smooth="yes"/>
			<point x="225" y="266"/>
			<point x="239" y="261"/>
			<point x="241" y="255" type="curve" smooth="yes"/>
			<point x="246" y="242"/>
			<point x="266" y="226"/>
			<point x="292" y="237" type="curve" smooth="yes"/>
			<point x="325" y="251"/>
			<point x="329" y="274"/>
			<point x="325" y="288" type="curve" smooth="yes"/>
			<point x="313" y="326"/>
			<point x="284" y="354"/>
			<point x="232" y="354" type="curve" smooth="yes"/>
			<point x="178" y="354"/>
			<point x="139" y="322"/>
			<point x="107" y="285" type="curve"/>
		</contour>
		<contour>
			<point x="7" y="0" type="curve" smooth="yes"/>
			<point x="46" y="0"/>
			<point x="59" y="24"/>
			<point x="64" y="44" type="curve" smooth="yes"/>
			<point x="127" y="297" type="line" smooth="yes"/>
			<point x="136" y="333"/>
			<point x="112" y="348"/>
			<point x="88" y="350" type="curve" smooth="yes"/>
			<point x="61" y="352"/>
			<point x="36" y="340"/>
			<point x="29" y="311" type="curve" smooth="yes"/>
			<point x="-33" y="59" type="line" smooth="yes"/>
			<point x="-41" y="27"/>
			<point x="-26" y="0"/>
		</contour>
	</outline>
</glyph>
<glyph name="s" format="2">
	<advance width="322"/>
	<unicode hex="0073"/>
	<outline>
		<contour>
			<point x="122" y="88" type="curve"/>
			<point x="89" y="88"/>
			<point x="71" y="94"/>
			<point x="58" y="100" type="curve" smooth="yes"/>
			<point x="36" y="111"/>
			<point x="0" y="115"/>
			<point x="-14" y="88" type="curve" smooth="yes"/>
			<point x="-27" y="64"/>
			<point x="-13" y="34"/>
			<point x="23" y="18" type="curve" smooth="yes"/>
			<point x="51" y="5"/>
			<point x="95" y="0"/>
			<point x="125" y="0" type="curve" smooth="yes"/>
			<point x="185" y="0"/>
			<point x="242" y="20"/>
			<point x="254" y="95" type="curve" smooth="yes"/>
			<point x="265" y="161"/>
			<point x="225" y="177"/>
			<point x="180" y="208" type="curve" smooth="yes"/>
			<point x="156" y="225"/>
			<point x="122" y="240"/>
			<point x="124" y="251" type="curve" smooth="yes"/>
			<point x="126" y="261"/>
			<point x="143" y="263"/>
			<point x="167" y="263" type="curve" smooth="yes"/>
			<point x="197" y="263"/>
			<point x="215" y="254"/>
			<point x="219" y="252" type="curve" smooth="yes"/>
			<point x="244" y="239"/>
			<point x="276" y="233"/>
			<point x="293" y="261" type="curve" smooth="yes"/>
			<point x="308" y="286"/>
			<point x="297" y="314"/>
			<point x="255" y="334" type="curve" smooth="yes"/>
			<point x="232" y="345"/>
			<point x="201" y="353"/>
			<point x="171" y="353" type="curve" smooth="yes"/>
			<point x="107" y="353"/>
			<point x="36" y="316"/>
			<point x="27" y="262" type="curve" smooth="yes"/>
			<point x="18" y="208"/>
			<point x="77" y="168"/>
			<point x="96" y="156" type="curve" smooth="yes"/>
			<point x="128" y="136"/>
			<point x="168" y="121"/>
			<point x="165" y="107" type="curve" smooth="yes"/>
			<point x="162" y="92"/>
			<point x="140" y="90"/>
		</contour>
	</outline>
</glyph>
<glyph name="t" format="2">
  <advance width="370"/>
  <unicode hex="0074"/>
  <outline>
    <contour>
      <point x="90" y="265" type="curve" smooth="yes"/>
      <point x="266" y="265" type="line" smooth="yes"/>
      <point x="305" y="265"/>
      <point x="316" y="290"/>
      <point x="316" y="312" type="curve" smooth="yes"/>
      <point x="316" y="335"/>
      <point x="308" y="359"/>
      <point x="266" y="359" type="curve" smooth="yes"/>
      <point x="90" y="359" type="line" smooth="yes"/>
      <point x="49" y="359"/>
      <point x="40" y="335"/>
      <point x="40" y="312" type="curve" smooth="yes"/>
      <point x="40" y="290"/>
      <point x="50" y="265"/>
    </contour>
    <contour>
      <point x="144" y="0" type="curve" smooth="yes"/>
      <point x="179" y="0"/>
      <point x="242" y="29"/>
      <point x="308" y="113" type="curve" smooth="yes"/>
      <point x="334" y="146"/>
      <point x="342" y="171"/>
      <point x="342" y="180" type="curve" smooth="yes"/>
      <point x="342" y="211"/>
      <point x="322" y="215"/>
      <point x="307" y="215" type="curve" smooth="yes"/>
      <point x="292" y="215"/>
      <point x="274" y="209"/>
      <point x="248" y="176" type="curve" smooth="yes"/>
      <point x="211" y="130"/>
      <point x="184" y="100"/>
      <point x="176" y="100" type="curve" smooth="yes"/>
      <point x="169" y="100"/>
      <point x="174" y="125"/>
      <point x="178" y="139" type="curve"/>
      <point x="251" y="433" type="line" smooth="yes"/>
      <point x="261" y="472"/>
      <point x="245" y="491"/>
      <point x="210" y="491" type="curve" smooth="yes"/>
      <point x="179" y="491"/>
      <point x="163" y="478"/>
      <point x="155" y="450" type="curve" smooth="yes"/>
      <point x="81" y="162" type="line" smooth="yes"/>
      <point x="42" y="6"/>
      <point x="87" y="0"/>
    </contour>
  </outline>
</glyph>
<glyph name="u" format="2">
	<advance width="389"/>
	<unicode hex="0075"/>
	<outline>
		<contour>
			<point x="251" y="251" type="line"/>
			<point x="205" y="186"/>
			<point x="130" y="86"/>
			<point x="101" y="86" type="curve" smooth="yes"/>
			<point x="77" y="86"/>
			<point x="85" y="120"/>
			<point x="95" y="161" type="curve" smooth="yes"/>
			<point x="131" y="304" type="line" smooth="yes"/>
			<point x="138" y="332"/>
			<point x="112" y="350"/>
			<point x="90" y="350" type="curve" smooth="yes"/>
			<point x="65" y="350"/>
			<point x="36" y="336"/>
			<point x="29" y="307" type="curve" smooth="yes"/>
			<point x="-7" y="166" type="line" smooth="yes"/>
			<point x="-27" y="86"/>
			<point x="-7" y="-4"/>
			<point x="86" y="-4" type="curve" smooth="yes"/>
			<point x="140" y="-4"/>
			<point x="179" y="28"/>
			<point x="211" y="65" type="curve"/>
		</contour>
		<contour>
			<point x="191" y="53" type="line" smooth="yes"/>
			<point x="182" y="17"/>
			<point x="206" y="2"/>
			<point x="230" y="0" type="curve" smooth="yes"/>
			<point x="257" y="-2"/>
			<point x="282" y="10"/>
			<point x="289" y="39" type="curve" smooth="yes"/>
			<point x="351" y="291" type="line" smooth="yes"/>
			<point x="359" y="323"/>
			<point x="344" y="347"/>
			<point x="311" y="350" type="curve" smooth="yes"/>
			<point x="272" y="352"/>
			<point x="259" y="326"/>
			<point x="254" y="306" type="curve" smooth="yes"/>
		</contour>
	</outline>
</glyph>
<glyph name="v" format="2">
	<advance width="327"/>
	<unicode hex="0076"/>
	<outline>
		<contour>
			<point x="288" y="289" type="line" smooth="yes"/>
			<point x="295" y="303"/>
			<point x="299" y="326"/>
			<point x="281" y="337" type="curve" smooth="yes"/>
			<point x="258" y="352"/>
			<point x="238" y="352"/>
			<point x="225" y="348" type="curve" smooth="yes"/>
			<point x="212" y="343"/>
			<point x="202" y="335"/>
			<point x="196" y="323" type="curve" smooth="yes"/>
			<point x="78" y="95" type="line"/>
			<point x="107" y="0" type="line"/>
			<point x="125" y="0"/>
			<point x="142" y="8"/>
			<point x="152" y="27" type="curve" smooth="yes"/>
		</contour>
		<contour>
			<point x="131" y="309" type="line" smooth="yes"/>
			<point x="128" y="345"/>
			<point x="91" y="357"/>
			<point x="64" y="347" type="curve" smooth="yes"/>
			<point x="41" y="338"/>
			<point x="32" y="318"/>
			<point x="34" y="298" type="curve" smooth="yes"/>
			<point x="55" y="39" type="line" smooth="yes"/>
			<point x="57" y="18"/>
			<point x="79" y="0"/>
			<point x="109" y="0" type="curve"/>
			<point x="149" y="88" type="line"/>
		</contour>
	</outline>
</glyph>
<glyph name="w" format="2">
  <advance width="493"/>
  <unicode hex="0077"/>
  <outline>
    <contour>
      <point x="128" y="0" type="curve" smooth="yes"/>
      <point x="155" y="0"/>
      <point x="163" y="8"/>
      <point x="174" y="28" type="curve" smooth="yes"/>
      <point x="309" y="281" type="line"/>
      <point x="232" y="307" type="line"/>
      <point x="256" y="39" type="line" smooth="yes"/>
      <point x="258" y="15"/>
      <point x="276" y="0"/>
      <point x="303" y="0" type="curve" smooth="yes"/>
      <point x="330" y="0"/>
      <point x="338" y="8"/>
      <point x="349" y="28" type="curve" smooth="yes"/>
      <point x="495" y="294" type="line" smooth="yes"/>
      <point x="510" y="322"/>
      <point x="496" y="359"/>
      <point x="454" y="359" type="curve" smooth="yes"/>
      <point x="435" y="359"/>
      <point x="420" y="352"/>
      <point x="409" y="331" type="curve" smooth="yes"/>
      <point x="277" y="82" type="line"/>
      <point x="343" y="79" type="line"/>
      <point x="322" y="317" type="line" smooth="yes"/>
      <point x="319" y="350"/>
      <point x="297" y="359"/>
      <point x="276" y="359" type="curve" smooth="yes"/>
      <point x="255" y="359"/>
      <point x="241" y="351"/>
      <point x="231" y="332" type="curve" smooth="yes"/>
      <point x="102" y="82" type="line"/>
      <point x="167" y="79" type="line"/>
      <point x="144" y="317" type="line" smooth="yes"/>
      <point x="141" y="350"/>
      <point x="119" y="359"/>
      <point x="98" y="359" type="curve" smooth="yes"/>
      <point x="59" y="359"/>
      <point x="47" y="328"/>
      <point x="50" y="304" type="curve" smooth="yes"/>
      <point x="81" y="39" type="line" smooth="yes"/>
      <point x="84" y="14"/>
      <point x="102" y="0"/>
    </contour>
  </outline>
</glyph>
<glyph name="x" format="2">
	<advance width="367"/>
	<unicode hex="0078"/>
	<outline>
		<contour>
			<point x="338" y="271" type="line" smooth="yes"/>
			<point x="346" y="278"/>
			<point x="354" y="289"/>
			<point x="354" y="306" type="curve" smooth="yes"/>
			<point x="354" y="317"/>
			<point x="350" y="328"/>
			<point x="340" y="337" type="curve" smooth="yes"/>
			<point x="332" y="346"/>
			<point x="316" y="350"/>
			<point x="301" y="350" type="curve" smooth="yes"/>
			<point x="292" y="350"/>
			<point x="277" y="345"/>
			<point x="268" y="337" type="curve" smooth="yes"/>
			<point x="-25" y="81" type="line" smooth="yes"/>
			<point x="-38" y="70"/>
			<point x="-42" y="55"/>
			<point x="-40" y="40" type="curve" smooth="yes"/>
			<point x="-39" y="30"/>
			<point x="-34" y="23"/>
			<point x="-27" y="14" type="curve" smooth="yes"/>
			<point x="-20" y="6"/>
			<point x="-6" y="0"/>
			<point x="8" y="0" type="curve" smooth="yes"/>
			<point x="22" y="0"/>
			<point x="37" y="7"/>
			<point x="47" y="16" type="curve" smooth="yes"/>
		</contour>
		<contour>
			<point x="114" y="329" type="line" smooth="yes"/>
			<point x="105" y="343"/>
			<point x="89" y="350"/>
			<point x="75" y="350" type="curve" smooth="yes"/>
			<point x="62" y="350"/>
			<point x="48" y="345"/>
			<point x="40" y="337" type="curve" smooth="yes"/>
			<point x="31" y="330"/>
			<point x="26" y="321"/>
			<point x="24" y="308" type="curve" smooth="yes"/>
			<point x="23" y="298"/>
			<point x="27" y="286"/>
			<point x="31" y="280" type="curve" smooth="yes"/>
			<point x="202" y="21" type="line" smooth="yes"/>
			<point x="209" y="11"/>
			<point x="221" y="0"/>
			<point x="233" y="0" type="curve" smooth="yes"/>
			<point x="248" y="0"/>
			<point x="265" y="5"/>
			<point x="275" y="15" type="curve" smooth="yes"/>
			<point x="285" y="24"/>
			<point x="290" y="36"/>
			<point x="290" y="48" type="curve" smooth="yes"/>
			<point x="290" y="57"/>
			<point x="287" y="66"/>
			<point x="281" y="75" type="curve" smooth="yes"/>
		</contour>
	</outline>
</glyph>
<glyph name="y" format="2">
  <advance width="372"/>
  <unicode hex="0079"/>
  <outline>
    <contour>
      <point x="87" y="0" type="curve" smooth="yes"/>
      <point x="142" y="0"/>
      <point x="215" y="63"/>
      <point x="261" y="142" type="curve"/>
      <point x="260" y="295" type="line"/>
      <point x="230" y="196"/>
      <point x="165" y="93"/>
      <point x="136" y="93" type="curve" smooth="yes"/>
      <point x="119" y="93"/>
      <point x="129" y="140"/>
      <point x="133" y="158" type="curve" smooth="yes"/>
      <point x="167" y="298" type="line" smooth="yes"/>
      <point x="176" y="334"/>
      <point x="167" y="359"/>
      <point x="128" y="359" type="curve" smooth="yes"/>
      <point x="93" y="359"/>
      <point x="85" y="341"/>
      <point x="78" y="313" type="curve" smooth="yes"/>
      <point x="44" y="175" type="line" smooth="yes"/>
      <point x="4" y="14"/>
      <point x="44" y="0"/>
    </contour>
    <contour>
      <point x="115" y="-300" type="curve" smooth="yes"/>
      <point x="176" y="-300"/>
      <point x="224" y="-262"/>
      <point x="241" y="-191" type="curve" smooth="yes"/>
      <point x="366" y="298" type="line" smooth="yes"/>
      <point x="373" y="336"/>
      <point x="361" y="359"/>
      <point x="325" y="359.0" type="curve" smooth="yes"/>
      <point x="290" y="359"/>
      <point x="272" y="346"/>
      <point x="264" y="313" type="curve" smooth="yes"/>
      <point x="140" y="-176" type="line" smooth="yes"/>
      <point x="137" y="-188"/>
      <point x="130" y="-196"/>
      <point x="117" y="-196" type="curve" smooth="yes"/>
      <point x="99" y="-196"/>
      <point x="77" y="-183"/>
      <point x="61" y="-163" type="curve" smooth="yes"/>
      <point x="44" y="-138"/>
      <point x="13" y="-130"/>
      <point x="-10" y="-148" type="curve" smooth="yes"/>
      <point x="-32" y="-166"/>
      <point x="-45.0" y="-188"/>
      <point x="-20" y="-224" type="curve" smooth="yes"/>
      <point x="16" y="-272"/>
      <point x="67" y="-300"/>
    </contour>
  </outline>
</glyph>
<glyph name="z" format="2">
	<advance width="353"/>
	<unicode hex="007A"/>
	<outline>
		<contour>
			<point x="4" y="0" type="line"/>
			<point x="239" y="0" type="line" smooth="yes"/>
			<point x="271" y="0"/>
			<point x="289" y="21"/>
			<point x="289" y="46" type="curve" smooth="yes"/>
			<point x="289" y="70"/>
			<point x="271" y="90"/>
			<point x="239" y="90" type="curve" smooth="yes"/>
			<point x="94" y="90" type="line"/>
		</contour>
		<contour>
			<point x="219" y="260" type="line"/>
			<point x="308" y="350" type="line"/>
			<point x="74" y="350" type="line" smooth="yes"/>
			<point x="42" y="350"/>
			<point x="24" y="329"/>
			<point x="24" y="304" type="curve" smooth="yes"/>
			<point x="24" y="280"/>
			<point x="42" y="260"/>
			<point x="74" y="260" type="curve" smooth="yes"/>
		</contour>
		<contour>
			<point x="338" y="271" type="line" smooth="yes"/>
			<point x="346" y="278"/>
			<point x="354" y="289"/>
			<point x="354" y="306" type="curve" smooth="yes"/>
			<point x="354" y="317"/>
			<point x="350" y="328"/>
			<point x="340" y="337" type="curve" smooth="yes"/>
			<point x="332" y="346"/>
			<point x="316" y="350"/>
			<point x="301" y="350" type="curve" smooth="yes"/>
			<point x="292" y="350"/>
			<point x="277" y="345"/>
			<point x="268" y="337" type="curve" smooth="yes"/>
			<point x="-25" y="81" type="line" smooth="yes"/>
			<point x="-38" y="70"/>
			<point x="-42" y="55"/>
			<point x="-40" y="40" type="curve" smooth="yes"/>
			<point x="-39" y="30"/>
			<point x="-34" y="23"/>
			<point x="-27" y="14" type="curve" smooth="yes"/>
			<point x="-20" y="6"/>
			<point x="-6" y="0"/>
			<point x="8" y="0" type="curve" smooth="yes"/>
			<point x="22" y="0"/>
			<point x="37" y="7"/>
			<point x="47" y="16" type="curve" smooth="yes"/>
		</contour>
	</outline>
</glyph>
<glyph name="braceleft" format="2">
	<advance width="255"/>
	<unicode hex="007B"/>
	<outline>
		<contour>
			<point x="105" y="177" type="line"/>
			<point x="160" y="219"/>
			<point x="177" y="254"/>
			<point x="190" y="300" type="curve" smooth="yes"/>
			<point x="203" y="354"/>
			<point x="196" y="461"/>
			<point x="217" y="511" type="curve" smooth="yes"/>
			<point x="236" y="551"/>
			<point x="278" y="568"/>
			<point x="308" y="575" type="curve" smooth="yes"/>
			<point x="331" y="582"/>
			<point x="345" y="601"/>
			<point x="336" y="625" type="curve" smooth="yes"/>
			<point x="328" y="654"/>
			<point x="295" y="652"/>
			<point x="271" y="644" type="curve" smooth="yes"/>
			<point x="241" y="633"/>
			<point x="167" y="603"/>
			<point x="141" y="546" type="curve" smooth="yes"/>
			<point x="115" y="483"/>
			<point x="119" y="372"/>
			<point x="106" y="320" type="curve" smooth="yes"/>
			<point x="98" y="295"/>
			<point x="87" y="278"/>
			<point x="67" y="260" type="curve" smooth="yes"/>
			<point x="44" y="243"/>
			<point x="33" y="234"/>
			<point x="36" y="195" type="curve"/>
		</contour>
		<contour>
			<point x="41" y="232" type="line"/>
			<point x="26" y="191"/>
			<point x="37" y="180"/>
			<point x="46" y="161" type="curve" smooth="yes"/>
			<point x="57" y="133"/>
			<point x="59" y="110"/>
			<point x="54" y="86" type="curve" smooth="yes"/>
			<point x="44" y="33"/>
			<point x="-8" y="-64"/>
			<point x="-10" y="-132" type="curve" smooth="yes"/>
			<point x="-11" y="-192"/>
			<point x="18" y="-248"/>
			<point x="43" y="-279" type="curve" smooth="yes"/>
			<point x="64" y="-306"/>
			<point x="95" y="-305"/>
			<point x="111" y="-287" type="curve" smooth="yes"/>
			<point x="129" y="-268"/>
			<point x="118" y="-251"/>
			<point x="104" y="-233" type="curve" smooth="yes"/>
			<point x="82" y="-207"/>
			<point x="73" y="-182"/>
			<point x="74" y="-134" type="curve" smooth="yes"/>
			<point x="77" y="-78"/>
			<point x="130" y="13"/>
			<point x="138" y="67" type="curve" smooth="yes"/>
			<point x="148" y="114"/>
			<point x="145" y="156"/>
			<point x="118" y="219" type="curve"/>
		</contour>
	</outline>
</glyph>
<glyph name="bar" format="2">
	<advance width="151"/>
	<unicode hex="007C"/>
	<outline>
		<contour>
			<point x="241" y="635" type="line" smooth="yes"/>
			<point x="251" y="676"/>
			<point x="228" y="700"/>
			<point x="201" y="700" type="curve" smooth="yes"/>
			<point x="179" y="700"/>
			<point x="153" y="687"/>
			<point x="145" y="655" type="curve" smooth="yes"/>
			<point x="-79" y="-242" type="line" smooth="yes"/>
			<point x="-86" y="-270"/>
			<point x="-67" y="-300"/>
			<point x="-35" y="-300" type="curve" smooth="yes"/>
			<point x="-1" y="-300"/>
			<point x="14" y="-280"/>
			<point x="19" y="-259" type="curve" smooth="yes"/>
		</contour>
	</outline>
</glyph>
<glyph name="braceright" format="2">
	<advance width="255"/>
	<unicode hex="007D"/>
	<outline>
		<contour>
			<point x="151" y="173" type="line"/>
			<point x="96" y="131"/>
			<point x="79" y="96"/>
			<point x="66" y="50" type="curve" smooth="yes"/>
			<point x="53" y="-4"/>
			<point x="60" y="-111"/>
			<point x="39" y="-161" type="curve" smooth="yes"/>
			<point x="20" y="-201"/>
			<point x="-22" y="-218"/>
			<point x="-52" y="-225" type="curve" smooth="yes"/>
			<point x="-75" y="-232"/>
			<point x="-89" y="-251"/>
			<point x="-80" y="-275" type="curve" smooth="yes"/>
			<point x="-72" y="-304"/>
			<point x="-39" y="-302"/>
			<point x="-15" y="-294" type="curve" smooth="yes"/>
			<point x="15" y="-283"/>
			<point x="89" y="-253"/>
			<point x="115" y="-196" type="curve" smooth="yes"/>
			<point x="141" y="-133"/>
			<point x="137" y="-22"/>
			<point x="150" y="30" type="curve" smooth="yes"/>
			<point x="158" y="55"/>
			<point x="169" y="72"/>
			<point x="189" y="90" type="curve" smooth="yes"/>
			<point x="212" y="107"/>
			<point x="223" y="116"/>
			<point x="220" y="155" type="curve"/>
		</contour>
		<contour>
			<point x="215" y="118" type="line"/>
			<point x="230" y="159"/>
			<point x="219" y="170"/>
			<point x="210" y="189" type="curve" smooth="yes"/>
			<point x="199" y="217"/>
			<point x="197" y="240"/>
			<point x="202" y="264" type="curve" smooth="yes"/>
			<point x="212" y="317"/>
			<point x="264" y="414"/>
			<point x="266" y="482" type="curve" smooth="yes"/>
			<point x="267" y="542"/>
			<point x="238" y="598"/>
			<point x="213" y="629" type="curve" smooth="yes"/>
			<point x="192" y="656"/>
			<point x="161" y="655"/>
			<point x="145" y="637" type="curve" smooth="yes"/>
			<point x="127" y="618"/>
			<point x="138" y="601"/>
			<point x="152" y="583" type="curve" smooth="yes"/>
			<point x="174" y="557"/>
			<point x="183" y="532"/>
			<point x="182" y="484" type="curve" smooth="yes"/>
			<point x="179" y="428"/>
			<point x="126" y="337"/>
			<point x="118" y="283" type="curve" smooth="yes"/>
			<point x="108" y="236"/>
			<point x="111" y="194"/>
			<point x="138" y="131" type="curve"/>
		</contour>
	</outline>
</glyph>
<glyph name="exclamdown" format="2">
	<advance width="162"/>
	<unicode hex="00A1"/>
	<outline>
		<contour>
			<point x="-3" y="48" type="line" smooth="yes"/>
			<point x="-10" y="22"/>
			<point x="16" y="2"/>
			<point x="40" y="0" type="curve" smooth="yes"/>
			<point x="62" y="-1"/>
			<point x="92" y="12"/>
			<point x="98" y="35" type="curve" smooth="yes"/>
			<point x="195" y="421" type="line" smooth="yes"/>
			<point x="202" y="450"/>
			<point x="180" y="472"/>
			<point x="155" y="475" type="curve" smooth="yes"/>
			<point x="132" y="479"/>
			<point x="102" y="463"/>
			<point x="95" y="434" type="curve" smooth="yes"/>
		</contour>
		<contour>
			<point x="195" y="674" type="curve" smooth="yes"/>
			<point x="165" y="674"/>
			<point x="137" y="648"/>
			<point x="137" y="619" type="curve" smooth="yes"/>
			<point x="137" y="590"/>
			<point x="165" y="564"/>
			<point x="195" y="564" type="curve" smooth="yes"/>
			<point x="226" y="564"/>
			<point x="247" y="592"/>
			<point x="247" y="619" type="curve" smooth="yes"/>
			<point x="247" y="646"/>
			<point x="226" y="674"/>
		</contour>
	</outline>
</glyph>
<glyph name="brokenbar" format="2">
	<advance width="152"/>
	<unicode hex="00A6"/>
	<outline>
		<contour>
			<point x="110" y="108" type="line" smooth="yes"/>
			<point x="117" y="138"/>
			<point x="97" y="163"/>
			<point x="70" y="163" type="curve" smooth="yes"/>
			<point x="47" y="163"/>
			<point x="19" y="150"/>
			<point x="12" y="123" type="curve" smooth="yes"/>
			<point x="-79" y="-245" type="line" smooth="yes"/>
			<point x="-86" y="-272"/>
			<point x="-67" y="-300"/>
			<point x="-35" y="-300" type="curve" smooth="yes"/>
			<point x="-1" y="-300"/>
			<point x="14" y="-282"/>
			<point x="19" y="-261" type="curve" smooth="yes"/>
		</contour>
		<contour>
			<point x="243" y="640" type="line" smooth="yes"/>
			<point x="252" y="676"/>
			<point x="231" y="700"/>
			<point x="205" y="700" type="curve" smooth="yes"/>
			<point x="181" y="700"/>
			<point x="153" y="687"/>
			<point x="146" y="659" type="curve" smooth="yes"/>
			<point x="54" y="292" type="line" smooth="yes"/>
			<point x="46" y="261"/>
			<point x="67" y="237"/>
			<point x="95" y="237" type="curve" smooth="yes"/>
			<point x="118" y="237"/>
			<point x="145" y="251"/>
			<point x="152" y="277" type="curve" smooth="yes"/>
		</contour>
	</outline>
</glyph>
<glyph name="degree" format="2">
	<advance width="310"/>
	<unicode hex="00B0"/>
	<outline>
		<contour>
			<point x="286" y="693" type="curve" smooth="yes"/>
			<point x="186" y="693"/>
			<point x="137" y="622"/>
			<point x="115" y="536" type="curve" smooth="yes"/>
			<point x="96" y="461"/>
			<point x="115" y="356"/>
			<point x="198" y="356" type="curve" smooth="yes"/>
			<point x="294" y="356"/>
			<point x="360" y="470"/>
			<point x="379" y="546" type="curve" smooth="yes"/>
			<point x="391" y="595"/>
			<point x="379" y="693"/>
		</contour>
		<contour>
			<point x="275" y="617" type="curve" smooth="yes"/>
			<point x="314" y="617"/>
			<point x="302" y="568"/>
			<point x="300" y="558" type="curve" smooth="yes"/>
			<point x="287" y="506"/>
			<point x="244" y="432"/>
			<point x="210" y="432" type="curve" smooth="yes"/>
			<point x="174" y="432"/>
			<point x="187" y="490"/>
			<point x="202" y="549" type="curve" smooth="yes"/>
			<point x="209" y="577"/>
			<point x="233" y="617"/>
		</contour>
	</outline>
</glyph>
<glyph name="plusminus" format="2">
  <advance width="412"/>
  <unicode hex="00B1"/>
  <outline>
    <contour>
      <point x="203" y="124" type="curve" smooth="yes"/>
      <point x="221" y="124"/>
      <point x="241" y="132"/>
      <point x="248" y="161" type="curve" smooth="yes"/>
      <point x="302" y="383" type="line" smooth="yes"/>
      <point x="310" y="418"/>
      <point x="286" y="438"/>
      <point x="265" y="438" type="curve" smooth="yes"/>
      <point x="248" y="438"/>
      <point x="226" y="433"/>
      <point x="219" y="404" type="curve" smooth="yes"/>
      <point x="165" y="181" type="line"/>
      <point x="157" y="143"/>
      <point x="182" y="124"/>
    </contour>
    <contour>
      <point x="118" y="240" type="curve" smooth="yes"/>
      <point x="345" y="240" type="line" smooth="yes"/>
      <point x="379" y="240"/>
      <point x="391" y="264"/>
      <point x="391" y="283" type="curve" smooth="yes"/>
      <point x="391" y="303"/>
      <point x="379" y="326"/>
      <point x="345" y="326" type="curve" smooth="yes"/>
      <point x="118" y="326" type="line" smooth="yes"/>
      <point x="84" y="326"/>
      <point x="72" y="303"/>
      <point x="72" y="283" type="curve" smooth="yes"/>
      <point x="72" y="263"/>
      <point x="84" y="240"/>
    </contour>
    <contour>
      <point x="83" y="100" type="curve" smooth="yes"/>
      <point x="310" y="100" type="line" smooth="yes"/>
      <point x="344" y="100"/>
      <point x="356" y="124"/>
      <point x="356" y="143" type="curve" smooth="yes"/>
      <point x="356" y="163"/>
      <point x="344" y="186"/>
      <point x="310" y="186" type="curve" smooth="yes"/>
      <point x="83" y="186" type="line" smooth="yes"/>
      <point x="49" y="186"/>
      <point x="37" y="163"/>
      <point x="37" y="143" type="curve" smooth="yes"/>
      <point x="37" y="123"/>
      <point x="49" y="100"/>
    </contour>
  </outline>
</glyph>
<glyph name="periodcentered" format="2">
	<advance width="327"/>
	<unicode hex="00B7"/>
	<outline>
		<contour>
			<point x="132" y="121" type="curve" smooth="yes"/>
			<point x="161" y="121"/>
			<point x="188" y="149"/>
			<point x="188" y="178" type="curve" smooth="yes"/>
			<point x="188" y="209"/>
			<point x="161" y="231"/>
			<point x="132" y="231" type="curve" smooth="yes"/>
			<point x="101" y="231"/>
			<point x="78" y="207"/>
			<point x="78" y="178" type="curve" smooth="yes"/>
			<point x="78" y="151"/>
			<point x="101" y="121"/>
		</contour>
	</outline>
</glyph>
<glyph name="multiply" format="2">
  <advance width="412"/>
  <unicode hex="00D7"/>
  <outline>
    <contour>
      <point x="123" y="88" type="curve" smooth="yes"/>
      <point x="361" y="300" type="line" smooth="yes"/>
      <point x="391" y="327"/>
      <point x="382" y="348"/>
      <point x="366" y="364" type="curve" smooth="yes"/>
      <point x="352" y="378"/>
      <point x="328" y="385"/>
      <point x="303" y="363" type="curve" smooth="yes"/>
      <point x="63" y="150" type="line" smooth="yes"/>
      <point x="40" y="130"/>
      <point x="43" y="105"/>
      <point x="58" y="89" type="curve" smooth="yes"/>
      <point x="73" y="73"/>
      <point x="94" y="63"/>
    </contour>
    <contour>
      <point x="260" y="92" type="line" smooth="yes"/>
      <point x="281" y="65"/>
      <point x="306" y="70"/>
      <point x="322" y="82" type="curve" smooth="yes"/>
      <point x="341" y="96"/>
      <point x="349" y="118"/>
      <point x="330" y="144" type="curve"/>
      <point x="169" y="354" type="line" smooth="yes"/>
      <point x="146" y="385"/>
      <point x="121" y="379"/>
      <point x="106" y="368" type="curve" smooth="yes"/>
      <point x="88" y="354"/>
      <point x="81" y="327"/>
      <point x="98" y="305" type="curve" smooth="yes"/>
    </contour>
  </outline>
</glyph>
<glyph name="divide" format="2">
	<advance width="382"/>
	<unicode hex="00F7"/>
	<outline>
		<contour>
			<point x="128" y="16" type="curve" smooth="yes"/>
			<point x="158" y="16"/>
			<point x="185" y="40"/>
			<point x="185" y="69" type="curve" smooth="yes"/>
			<point x="185" y="100"/>
			<point x="157" y="122"/>
			<point x="128" y="122" type="curve" smooth="yes"/>
			<point x="97" y="122"/>
			<point x="73" y="98"/>
			<point x="73" y="69" type="curve" smooth="yes"/>
			<point x="73" y="40"/>
			<point x="98" y="16"/>
		</contour>
		<contour>
			<point x="192" y="273" type="curve" smooth="yes"/>
			<point x="222" y="273"/>
			<point x="249" y="297"/>
			<point x="249" y="327" type="curve" smooth="yes"/>
			<point x="249" y="356"/>
			<point x="222" y="379"/>
			<point x="192" y="379" type="curve" smooth="yes"/>
			<point x="162" y="379"/>
			<point x="137" y="355"/>
			<point x="137" y="327" type="curve" smooth="yes"/>
			<point x="137" y="298"/>
			<point x="162" y="273"/>
		</contour>
		<contour>
			<point x="270" y="154" type="line" smooth="yes"/>
			<point x="336" y="154"/>
			<point x="339" y="241"/>
			<point x="270" y="241" type="curve" smooth="yes"/>
			<point x="53" y="241" type="line" smooth="yes"/>
			<point x="-16" y="241"/>
			<point x="-13" y="154"/>
			<point x="53" y="154" type="curve" smooth="yes"/>
		</contour>
	</outline>
</glyph>
<glyph name="tilde" format="2">
	<advance width="383"/>
	<unicode hex="02DC"/>
	<outline>
		<contour>
			<point x="203" y="139" type="curve" smooth="yes"/>
			<point x="240" y="139"/>
			<point x="265" y="151"/>
			<point x="283" y="159" type="curve" smooth="yes"/>
			<point x="311" y="172"/>
			<point x="323" y="183"/>
			<point x="323" y="203" type="curve" smooth="yes"/>
			<point x="323" y="231"/>
			<point x="291" y="261"/>
			<point x="259" y="245" type="curve" smooth="yes"/>
			<point x="235" y="233"/>
			<point x="230" y="226"/>
			<point x="211" y="226" type="curve" smooth="yes"/>
			<point x="194" y="226"/>
			<point x="152" y="262"/>
			<point x="113" y="262" type="curve" smooth="yes"/>
			<point x="82" y="262"/>
			<point x="60" y="252"/>
			<point x="44" y="245" type="curve" smooth="yes"/>
			<point x="17" y="234"/>
			<point x="3" y="223"/>
			<point x="3" y="203" type="curve" smooth="yes"/>
			<point x="3" y="171"/>
			<point x="35" y="144"/>
			<point x="66" y="159" type="curve" smooth="yes"/>
			<point x="84" y="168"/>
			<point x="92" y="175"/>
			<point x="105" y="175" type="curve" smooth="yes"/>
			<point x="125" y="175"/>
			<point x="166" y="139"/>
		</contour>
	</outline>
</glyph>
<glyph name="endash" format="2">
	<advance width="394"/>
	<unicode hex="2013"/>
	<outline>
		<contour>
			<point x="281" y="153" type="line" smooth="yes"/>
			<point x="312" y="153"/>
			<point x="333" y="174"/>
			<point x="333" y="199" type="curve" smooth="yes"/>
			<point x="333" y="223"/>
			<point x="312" y="242"/>
			<point x="281" y="242" type="curve" smooth="yes"/>
			<point x="54" y="242" type="line" smooth="yes"/>
			<point x="23" y="242"/>
			<point x="2" y="223"/>
			<point x="2" y="199" type="curve" smooth="yes"/>
			<point x="2" y="174"/>
			<point x="23" y="153"/>
			<point x="54" y="153" type="curve" smooth="yes"/>
		</contour>
	</outline>
</glyph>
<glyph name="emdash" format="2">
  <advance width="558"/>
  <unicode hex="2014"/>
  <outline>
    <contour>
      <point x="125" y="240" type="curve" smooth="yes"/>
      <point x="487" y="240" type="line" smooth="yes"/>
      <point x="529" y="240"/>
      <point x="538" y="265"/>
      <point x="538" y="289" type="curve" smooth="yes"/>
      <point x="538" y="312"/>
      <point x="530" y="336"/>
      <point x="487" y="336" type="curve" smooth="yes"/>
      <point x="125" y="336" type="line" smooth="yes"/>
      <point x="82" y="336"/>
      <point x="74" y="312"/>
      <point x="74" y="289" type="curve" smooth="yes"/>
      <point x="74" y="265"/>
      <point x="83" y="240"/>
    </contour>
  </outline>
</glyph>
<glyph name="bullet" format="2">
	<advance width="419"/>
	<unicode hex="2022"/>
	<outline>
		<contour>
			<point x="207" y="254" type="curve" smooth="yes"/>
			<point x="261" y="254"/>
			<point x="310" y="301"/>
			<point x="310" y="355" type="curve" smooth="yes"/>
			<point x="310" y="409"/>
			<point x="262" y="454"/>
			<point x="208" y="454" type="curve" smooth="yes"/>
			<point x="153" y="454"/>
			<point x="110" y="408"/>
			<point x="110" y="355" type="curve" smooth="yes"/>
			<point x="110" y="304"/>
			<point x="151" y="254"/>
		</contour>
	</outline>
</glyph>
<glyph name="ellipsis" format="2">
	<advance width="464"/>
	<unicode hex="2026"/>
	<outline>
		<contour>
			<point x="304" y="-31" type="curve" smooth="yes"/>
			<point x="332" y="-31"/>
			<point x="359" y="-6"/>
			<point x="359" y="25" type="curve" smooth="yes"/>
			<point x="359" y="56"/>
			<point x="332" y="79"/>
			<point x="303" y="79" type="curve" smooth="yes"/>
			<point x="275" y="79"/>
			<point x="249" y="57"/>
			<point x="249" y="25" type="curve" smooth="yes"/>
			<point x="249" y="-6"/>
			<point x="275" y="-31"/>
		</contour>
		<contour>
			<point x="14" y="-31" type="curve" smooth="yes"/>
			<point x="42" y="-31"/>
			<point x="69" y="-6"/>
			<point x="69" y="25" type="curve" smooth="yes"/>
			<point x="69" y="56"/>
			<point x="42" y="79"/>
			<point x="13" y="79" type="curve" smooth="yes"/>
			<point x="-15" y="79"/>
			<point x="-41" y="57"/>
			<point x="-41" y="25" type="curve" smooth="yes"/>
			<point x="-41" y="-6"/>
			<point x="-15" y="-31"/>
		</contour>
		<contour>
			<point x="159" y="-30" type="curve" smooth="yes"/>
			<point x="187" y="-30"/>
			<point x="214" y="-6"/>
			<point x="214" y="25" type="curve" smooth="yes"/>
			<point x="214" y="56"/>
			<point x="187" y="79"/>
			<point x="159" y="79" type="curve" smooth="yes"/>
			<point x="130" y="79"/>
			<point x="104" y="56"/>
			<point x="104" y="25" type="curve" smooth="yes"/>
			<point x="104" y="-6"/>
			<point x="130" y="-30"/>
		</contour>
	</outline>
</glyph>
<glyph name="minus" format="2">
  <advance width="412"/>
  <unicode hex="2212"/>
  <outline>
    <contour>
      <point x="104" y="184" type="curve" smooth="yes"/>
      <point x="331" y="184" type="line" smooth="yes"/>
      <point x="365.0" y="184.0"/>
      <point x="377" y="208"/>
      <point x="377" y="227" type="curve" smooth="yes"/>
      <point x="377" y="247"/>
      <point x="365.0" y="270.0"/>
      <point x="331" y="270" type="curve" smooth="yes"/>
      <point x="104" y="270" type="line" smooth="yes"/>
      <point x="70" y="270"/>
      <point x="58" y="247"/>
      <point x="58" y="227" type="curve" smooth="yes"/>
      <point x="58" y="207"/>
      <point x="70" y="184"/>
    </contour>
  </outline>
</glyph>
<glyph name="infinity" format="2">
  <advance width="670"/>
  <unicode hex="221E"/>
  <outline>
    <contour>
      <point x="168" y="70" type="curve" smooth="yes"/>
      <point x="231" y="70"/>
      <point x="303" y="121"/>
      <point x="360" y="181" type="curve"/>
      <point x="302" y="246" type="line"/>
      <point x="262" y="206"/>
      <point x="210" y="157"/>
      <point x="174" y="157" type="curve" smooth="yes"/>
      <point x="144" y="157"/>
      <point x="132" y="181"/>
      <point x="142" y="220" type="curve" smooth="yes"/>
      <point x="152" y="260"/>
      <point x="178" y="284"/>
      <point x="210" y="284" type="curve" smooth="yes"/>
      <point x="230" y="284"/>
      <point x="260" y="258"/>
      <point x="287" y="217" type="curve" smooth="yes"/>
      <point x="317" y="173" type="line" smooth="yes"/>
      <point x="361" y="109"/>
      <point x="417.0" y="70.0"/>
      <point x="461" y="70.0" type="curve" smooth="yes"/>
      <point x="547" y="70.0"/>
      <point x="609" y="124.0"/>
      <point x="627" y="211" type="curve" smooth="yes"/>
      <point x="652" y="310.0"/>
      <point x="608.0" y="371.0"/>
      <point x="511" y="371" type="curve" smooth="yes"/>
      <point x="448" y="371"/>
      <point x="376" y="320"/>
      <point x="319" y="260" type="curve"/>
      <point x="377" y="195" type="line"/>
      <point x="417" y="235"/>
      <point x="469.0" y="284.0"/>
      <point x="505" y="284" type="curve" smooth="yes"/>
      <point x="537" y="284.0"/>
      <point x="547" y="261"/>
      <point x="537" y="221" type="curve" smooth="yes"/>
      <point x="527" y="181"/>
      <point x="503.0" y="157.0"/>
      <point x="469" y="157" type="curve" smooth="yes"/>
      <point x="444" y="157"/>
      <point x="414" y="183"/>
      <point x="392" y="224" type="curve" smooth="yes"/>
      <point x="362" y="278" type="line" smooth="yes"/>
      <point x="330" y="335"/>
      <point x="274" y="371"/>
      <point x="216" y="371" type="curve" smooth="yes"/>
      <point x="134" y="371"/>
      <point x="72" y="317"/>
      <point x="52" y="230" type="curve" smooth="yes"/>
      <point x="29" y="131"/>
      <point x="73" y="70"/>
    </contour>
  </outline>
</glyph>
<glyph name="approxequal" format="2">
  <advance width="412"/>
  <unicode hex="2248"/>
  <outline>
    <contour>
      <point x="108" y="119.0" type="curve" smooth="yes"/>
      <point x="119" y="124.0"/>
      <point x="131" y="131"/>
      <point x="141" y="131.0" type="curve" smooth="yes"/>
      <point x="174" y="131.0"/>
      <point x="209" y="109.0"/>
      <point x="244" y="109.0" type="curve" smooth="yes"/>
      <point x="271" y="109.0"/>
      <point x="298" y="116.0"/>
      <point x="318" y="124.0" type="curve" smooth="yes"/>
      <point x="349" y="137"/>
      <point x="357" y="162.0"/>
      <point x="348" y="183.0" type="curve" smooth="yes"/>
      <point x="338" y="205.0"/>
      <point x="317" y="215"/>
      <point x="283" y="201.0" type="curve" smooth="yes"/>
      <point x="273" y="197"/>
      <point x="260" y="192.0"/>
      <point x="251" y="192.0" type="curve" smooth="yes"/>
      <point x="216" y="192.0"/>
      <point x="185" y="214.0"/>
      <point x="148" y="214.0" type="curve" smooth="yes"/>
      <point x="120" y="214.0"/>
      <point x="93" y="205.0"/>
      <point x="74" y="196.0" type="curve" smooth="yes"/>
      <point x="42" y="181"/>
      <point x="33" y="157"/>
      <point x="43" y="136.0" type="curve" smooth="yes"/>
      <point x="53" y="114"/>
      <point x="75" y="104"/>
    </contour>
    <contour>
      <point x="143" y="259.0" type="curve" smooth="yes"/>
      <point x="154" y="264.0"/>
      <point x="166" y="271"/>
      <point x="176" y="271.0" type="curve" smooth="yes"/>
      <point x="209" y="271.0"/>
      <point x="244" y="249.0"/>
      <point x="279" y="249.0" type="curve" smooth="yes"/>
      <point x="306" y="249.0"/>
      <point x="333" y="256.0"/>
      <point x="353" y="264.0" type="curve" smooth="yes"/>
      <point x="384" y="277"/>
      <point x="392" y="302.0"/>
      <point x="383" y="323.0" type="curve" smooth="yes"/>
      <point x="373" y="345.0"/>
      <point x="352" y="355"/>
      <point x="318" y="341.0" type="curve" smooth="yes"/>
      <point x="308" y="337"/>
      <point x="295" y="332.0"/>
      <point x="286" y="332.0" type="curve" smooth="yes"/>
      <point x="251" y="332.0"/>
      <point x="220" y="354.0"/>
      <point x="183" y="354.0" type="curve" smooth="yes"/>
      <point x="155" y="354.0"/>
      <point x="128" y="345.0"/>
      <point x="109" y="336.0" type="curve" smooth="yes"/>
      <point x="77" y="321"/>
      <point x="68" y="297"/>
      <point x="78" y="276.0" type="curve" smooth="yes"/>
      <point x="88" y="254"/>
      <point x="110" y="244"/>
    </contour>
  </outline>
</glyph>
<glyph name="notequal" format="2">
  <advance width="412"/>
  <unicode hex="2260"/>
  <outline>
    <contour>
      <point x="88" y="120" type="curve" smooth="yes"/>
      <point x="315" y="120" type="line" smooth="yes"/>
      <point x="349" y="120"/>
      <point x="361" y="144"/>
      <point x="361" y="163" type="curve" smooth="yes"/>
      <point x="361" y="183"/>
      <point x="349" y="206"/>
      <point x="315" y="206" type="curve" smooth="yes"/>
      <point x="88" y="206" type="line" smooth="yes"/>
      <point x="54" y="206"/>
      <point x="42" y="183"/>
      <point x="42" y="163" type="curve" smooth="yes"/>
      <point x="42" y="143"/>
      <point x="54" y="120"/>
    </contour>
    <contour>
      <point x="121" y="251" type="curve" smooth="yes"/>
      <point x="348" y="251" type="line" smooth="yes"/>
      <point x="382" y="251"/>
      <point x="394" y="275"/>
      <point x="394" y="294" type="curve" smooth="yes"/>
      <point x="394" y="314"/>
      <point x="382" y="337"/>
      <point x="348" y="337" type="curve" smooth="yes"/>
      <point x="121" y="337" type="line" smooth="yes"/>
      <point x="87" y="337"/>
      <point x="75" y="314"/>
      <point x="75" y="294" type="curve" smooth="yes"/>
      <point x="75" y="274"/>
      <point x="87" y="251"/>
    </contour>
    <contour>
      <point x="174" y="69" type="curve" smooth="yes"/>
      <point x="336" y="337" type="line" smooth="yes"/>
      <point x="370" y="393"/>
      <point x="326" y="407"/>
      <point x="303" y="407" type="curve" smooth="yes"/>
      <point x="286" y="407"/>
      <point x="274" y="402"/>
      <point x="262" y="383" type="curve" smooth="yes"/>
      <point x="96" y="111" type="line" smooth="yes"/>
      <point x="77" y="80"/>
      <point x="96" y="56"/>
      <point x="115" y="47" type="curve" smooth="yes"/>
      <point x="131" y="40"/>
      <point x="158" y="43"/>
    </contour>
  </outline>
</glyph>
<glyph name="lessequal" format="2">
  <advance width="412"/>
  <unicode hex="2264"/>
  <outline>
    <contour>
      <point x="83" y="100" type="curve" smooth="yes"/>
      <point x="310" y="100" type="line" smooth="yes"/>
      <point x="344" y="100"/>
      <point x="356" y="124"/>
      <point x="356" y="143" type="curve" smooth="yes"/>
      <point x="356" y="163"/>
      <point x="344" y="186"/>
      <point x="310" y="186" type="curve" smooth="yes"/>
      <point x="83" y="186" type="line" smooth="yes"/>
      <point x="49" y="186"/>
      <point x="37" y="163"/>
      <point x="37" y="143" type="curve" smooth="yes"/>
      <point x="37" y="123"/>
      <point x="49" y="100"/>
    </contour>
    <contour>
      <point x="112" y="215" type="curve" smooth="yes"/>
      <point x="318" y="215" type="line" smooth="yes"/>
      <point x="351.0" y="215.0"/>
      <point x="364" y="238"/>
      <point x="364" y="258" type="curve" smooth="yes"/>
      <point x="364" y="277"/>
      <point x="352.0" y="301.0"/>
      <point x="318" y="301" type="curve" smooth="yes"/>
      <point x="186" y="301" type="line"/>
      <point x="197" y="275" type="line"/>
      <point x="339" y="337" type="line" smooth="yes"/>
      <point x="370" y="350"/>
      <point x="370" y="382"/>
      <point x="355" y="402" type="curve" smooth="yes"/>
      <point x="342" y="419"/>
      <point x="323" y="426"/>
      <point x="294" y="410" type="curve" smooth="yes"/>
      <point x="90" y="296" type="line" smooth="yes"/>
      <point x="72" y="286"/>
      <point x="66" y="272"/>
      <point x="66" y="258" type="curve" smooth="yes"/>
      <point x="66" y="239"/>
      <point x="78" y="215"/>
    </contour>
  </outline>
</glyph>
<glyph name="greaterequal" format="2">
	<advance width="369"/>
	<unicode hex="2265"/>
	<outline>
		<contour>
			<point x="247" y="211" type="line" smooth="yes"/>
			<point x="270" y="196"/>
			<point x="297" y="199"/>
			<point x="310" y="218" type="curve" smooth="yes"/>
			<point x="325" y="240"/>
			<point x="324" y="261"/>
			<point x="298" y="278" type="curve" smooth="yes"/>
			<point x="120" y="392" type="line" smooth="yes"/>
			<point x="92" y="410"/>
			<point x="64" y="402"/>
			<point x="52" y="385" type="curve" smooth="yes"/>
			<point x="36" y="363"/>
			<point x="41" y="341"/>
			<point x="68" y="324" type="curve" smooth="yes"/>
		</contour>
		<contour>
			<point x="231" y="57" type="line" smooth="yes"/>
			<point x="262" y="57"/>
			<point x="282" y="75"/>
			<point x="282" y="99" type="curve" smooth="yes"/>
			<point x="282" y="123"/>
			<point x="262" y="142"/>
			<point x="231" y="142" type="curve" smooth="yes"/>
			<point x="29" y="142" type="line" smooth="yes"/>
			<point x="-1" y="142"/>
			<point x="-22" y="122"/>
			<point x="-22" y="98" type="curve" smooth="yes"/>
			<point x="-22" y="75"/>
			<point x="-1" y="57"/>
			<point x="29" y="57" type="curve" smooth="yes"/>
		</contour>
		<contour>
			<point x="270" y="202" type="line"/>
			<point x="139" y="287" type="line"/>
			<point x="69" y="287" type="line" smooth="yes"/>
			<point x="35" y="287"/>
			<point x="16" y="271"/>
			<point x="13" y="247" type="curve" smooth="yes"/>
			<point x="11" y="223"/>
			<point x="28" y="202"/>
			<point x="63" y="202" type="curve" smooth="yes"/>
		</contour>
	</outline>
</glyph>
<glyph name=".notdef" format="2">
	<advance width="530"/>
	<outline>
		<contour>
			<point x="423" y="0" type="line" smooth="yes"/>
			<point x="448" y="0"/>
			<point x="469" y="26"/>
			<point x="475" y="49" type="curve" smooth="yes"/>
			<point x="627" y="659" type="line" smooth="yes"/>
			<point x="634" y="687"/>
			<point x="617" y="700"/>
			<point x="580" y="700" type="curve" smooth="yes"/>
			<point x="200" y="700" type="line" smooth="yes"/>
			<point x="172" y="700"/>
			<point x="153" y="687"/>
			<point x="146" y="659" type="curve" smooth="yes"/>
			<point x="-6" y="49" type="line" smooth="yes"/>
			<point x="-13" y="21"/>
			<point x="3" y="0"/>
			<point x="42" y="0" type="curve" smooth="yes"/>
		</contour>
		<contour>
			<point x="104" y="95" type="line"/>
			<point x="239" y="605" type="line"/>
			<point x="516" y="605" type="line"/>
			<point x="381" y="95" type="line"/>
		</contour>
	</outline>
</glyph>
